<svg xmlns="http://www.w3.org/2000/svg" viewBox="-1441 -360 3086 2192" width="2000">
<defs><filter id="sh" x="-60%" y="-60%" width="220%" height="220%"><feGaussianBlur stdDeviation="7"/></filter>
<linearGradient id="bg" x1="0" y1="0" x2="0" y2="1"><stop offset="0" stop-color="#f6f3ec"/><stop offset="1" stop-color="#eae4d8"/></linearGradient></defs>
<rect x="-1441" y="-360" width="3086" height="2192" fill="url(#bg)"/>
<polygon points="-216.5,125.0 -60.6,215.0 -398.4,410.0 -554.3,320.0" fill="#d4d4d4" stroke="#bfae8e" stroke-width="0.5"/>
<polygon points="-554.3,320.0 -125.6,567.5 -368.1,707.5 -796.7,460.0" fill="#d4d4d4" stroke="#bfae8e" stroke-width="0.5"/>
<polygon points="316.1,182.5 584.6,337.5 368.1,462.5 99.6,307.5" fill="#cfdac6" stroke="#bfae8e" stroke-width="0.5"/>
<polygon points="-60.6,215.0 212.2,372.5 -125.6,567.5 -398.4,410.0" fill="#d9c4a0" stroke="#bfae8e" stroke-width="0.5"/>
<polygon points="212.2,372.5 368.1,462.5 30.3,657.5 -125.6,567.5" fill="#d9c4a0" stroke="#bfae8e" stroke-width="0.5"/>
<polygon points="4.3,492.5 627.9,852.5 -34.6,1235.0 -658.2,875.0" fill="#d9c4a0" stroke="#bfae8e" stroke-width="0.5"/>
<polygon points="355.1,470.0 640.9,635.0 446.0,747.5 160.2,582.5" fill="#cdd9e0" stroke="#bfae8e" stroke-width="0.5"/>
<polygon points="640.9,635.0 822.7,740.0 627.9,852.5 446.0,747.5" fill="#cfdac6" stroke="#bfae8e" stroke-width="0.5"/>
<polygon points="-658.2,875.0 -34.6,1235.0 -168.9,1312.5 -792.4,952.5" fill="#d9c4a0" stroke="#bfae8e" stroke-width="0.5"/>
<polygon points="-640.9,550.0 -368.1,707.5 -454.7,757.5 -727.5,600.0" fill="#dcd5c6" stroke="#bfae8e" stroke-width="0.5"/>
<polygon points="-727.5,600.0 -454.7,757.5 -792.4,952.5 -1065.2,795.0" fill="#dcc8a4" stroke="#bfae8e" stroke-width="0.5"/>
<polygon points="-883.3,510.0 -727.5,600.0 -1065.2,795.0 -1221.1,705.0" fill="#cdd9e0" stroke="#bfae8e" stroke-width="0.5"/>
<polygon points="-796.7,460.0 -640.9,550.0 -727.5,600.0 -883.3,510.0" fill="#dcd5c6" stroke="#bfae8e" stroke-width="0.5"/>
<polygon points="905.0,692.5 1164.8,842.5 887.7,1002.5 627.9,852.5" fill="#dcc8a4" stroke="#bfae8e" stroke-width="0.5"/>
<polygon points="1164.8,842.5 1424.6,992.5 1078.2,1192.5 818.4,1042.5" fill="#dcc8a4" stroke="#bfae8e" stroke-width="0.5"/>
<polygon points="627.9,852.5 887.7,1002.5 653.8,1137.5 394.0,987.5" fill="#dcd5c6" stroke="#bfae8e" stroke-width="0.5"/>
<polygon points="818.4,1042.5 1078.2,1192.5 913.7,1287.5 653.8,1137.5" fill="#cdd9e0" stroke="#bfae8e" stroke-width="0.5"/>
<polygon points="463.3,947.5 723.1,1097.5 428.7,1267.5 168.9,1117.5" fill="#dcc8a4" stroke="#bfae8e" stroke-width="0.5"/>
<polygon points="653.8,1137.5 913.7,1287.5 688.5,1417.5 428.7,1267.5" fill="#cdd9e0" stroke="#bfae8e" stroke-width="0.5"/>
<polygon points="168.9,1117.5 688.5,1417.5 350.7,1612.5 -168.9,1312.5" fill="#dcc8a4" stroke="#bfae8e" stroke-width="0.5"/>
<line x1="147.2" y1="335.0" x2="-190.5" y2="530.0" stroke="#c7b493" stroke-width="0.8"/>
<line x1="212.2" y1="612.5" x2="-450.3" y2="995.0" stroke="#c7b493" stroke-width="0.8"/>
<line x1="420.0" y1="732.5" x2="-242.5" y2="1115.0" stroke="#c7b493" stroke-width="0.8"/>
<line x1="-450.3" y1="995.0" x2="-584.6" y2="1072.5" stroke="#c7b493" stroke-width="0.8"/>
<line x1="-242.5" y1="1115.0" x2="-376.7" y2="1192.5" stroke="#c7b493" stroke-width="0.8"/>
<line x1="-433.0" y1="670.0" x2="-519.6" y2="720.0" stroke="#cac3b6" stroke-width="0.8"/>
<line x1="-519.6" y1="720.0" x2="-857.4" y2="915.0" stroke="#cab896" stroke-width="0.8"/>
<line x1="1112.8" y1="812.5" x2="835.7" y2="972.5" stroke="#cab896" stroke-width="0.8"/>
<line x1="1372.7" y1="962.5" x2="1026.2" y2="1162.5" stroke="#cab896" stroke-width="0.8"/>
<line x1="835.7" y1="972.5" x2="601.9" y2="1107.5" stroke="#cac3b6" stroke-width="0.8"/>
<line x1="671.2" y1="1067.5" x2="376.7" y2="1237.5" stroke="#cab896" stroke-width="0.8"/>
<line x1="376.7" y1="1237.5" x2="39.0" y2="1432.5" stroke="#cab896" stroke-width="0.8"/>
<line x1="584.6" y1="1357.5" x2="246.8" y2="1552.5" stroke="#cab896" stroke-width="0.8"/>
<polygon points="380.2,207.5 359.4,219.5 359.4,74.5 380.2,62.5" fill="#b0a99d" stroke="none" stroke-width="0.4"/><polygon points="305.7,188.5 359.4,219.5 359.4,74.5 305.7,43.5" fill="#8d887e" stroke="none" stroke-width="0.4"/><polygon points="326.5,31.5 380.2,62.5 359.4,74.5 305.7,43.5" fill="#f0e7d7" stroke="none" stroke-width="0.4"/>
<polygon points="326.5,188.5 272.4,219.7 272.4,74.7 326.5,43.5" fill="#b0a99d" stroke="none" stroke-width="0.4"/><polygon points="251.6,207.7 272.4,219.7 272.4,74.7 251.6,62.7" fill="#8d887e" stroke="none" stroke-width="0.4"/><polygon points="305.7,31.5 326.5,43.5 272.4,74.7 251.6,62.7" fill="#f0e7d7" stroke="none" stroke-width="0.4"/>
<polygon points="433.9,238.5 413.1,250.5 413.1,105.5 433.9,93.5" fill="#b0a99d" stroke="none" stroke-width="0.4"/><polygon points="359.4,219.5 413.1,250.5 413.1,105.5 359.4,74.5" fill="#8d887e" stroke="none" stroke-width="0.4"/><polygon points="380.2,62.5 433.9,93.5 413.1,105.5 359.4,74.5" fill="#f0e7d7" stroke="none" stroke-width="0.4"/>
<polygon points="272.4,219.7 218.2,251.0 218.2,106.0 272.4,74.7" fill="#b0a99d" stroke="none" stroke-width="0.4"/><polygon points="197.5,239.0 218.2,251.0 218.2,106.0 197.5,94.0" fill="#8d887e" stroke="none" stroke-width="0.4"/><polygon points="251.6,62.7 272.4,74.7 218.2,106.0 197.5,94.0" fill="#f0e7d7" stroke="none" stroke-width="0.4"/>
<polygon points="3.2,239.8 -17.6,251.8 -17.6,106.8 3.2,94.8" fill="#b0a99d" stroke="none" stroke-width="0.4"/><polygon points="-71.0,221.0 -17.6,251.8 -17.6,106.8 -71.0,76.0" fill="#8d887e" stroke="none" stroke-width="0.4"/><polygon points="-50.2,64.0 3.2,94.8 -17.6,106.8 -71.0,76.0" fill="#f0e7d7" stroke="none" stroke-width="0.4"/>
<polygon points="-50.2,221.0 -106.5,253.5 -106.5,108.5 -50.2,76.0" fill="#b0a99d" stroke="none" stroke-width="0.4"/><polygon points="-127.3,241.5 -106.5,253.5 -106.5,108.5 -127.3,96.5" fill="#8d887e" stroke="none" stroke-width="0.4"/><polygon points="-71.0,64.0 -50.2,76.0 -106.5,108.5 -127.3,96.5" fill="#f0e7d7" stroke="none" stroke-width="0.4"/>
<polygon points="487.6,269.5 466.8,281.5 466.8,136.5 487.6,124.5" fill="#b0a99d" stroke="none" stroke-width="0.4"/><polygon points="413.1,250.5 466.8,281.5 466.8,136.5 413.1,105.5" fill="#8d887e" stroke="none" stroke-width="0.4"/><polygon points="433.9,93.5 487.6,124.5 466.8,136.5 413.1,105.5" fill="#f0e7d7" stroke="none" stroke-width="0.4"/>
<polygon points="218.2,251.0 164.1,282.2 164.1,137.2 218.2,106.0" fill="#b0a99d" stroke="none" stroke-width="0.4"/><polygon points="143.3,270.2 164.1,282.2 164.1,137.2 143.3,125.2" fill="#8d887e" stroke="none" stroke-width="0.4"/><polygon points="197.5,94.0 218.2,106.0 164.1,137.2 143.3,125.2" fill="#f0e7d7" stroke="none" stroke-width="0.4"/>
<polygon points="56.6,270.7 35.8,282.7 35.8,137.7 56.6,125.7" fill="#b0a99d" stroke="none" stroke-width="0.4"/><polygon points="-17.6,251.8 35.8,282.7 35.8,137.7 -17.6,106.8" fill="#8d887e" stroke="none" stroke-width="0.4"/><polygon points="3.2,94.8 56.6,125.7 35.8,137.7 -17.6,106.8" fill="#f0e7d7" stroke="none" stroke-width="0.4"/>
<polygon points="-106.5,253.5 -162.8,286.0 -162.8,141.0 -106.5,108.5" fill="#b0a99d" stroke="none" stroke-width="0.4"/><polygon points="-183.6,274.0 -162.8,286.0 -162.8,141.0 -183.6,129.0" fill="#8d887e" stroke="none" stroke-width="0.4"/><polygon points="-127.3,96.5 -106.5,108.5 -162.8,141.0 -183.6,129.0" fill="#f0e7d7" stroke="none" stroke-width="0.4"/>
<polygon points="541.3,300.5 520.5,312.5 520.5,167.5 541.3,155.5" fill="#b0a99d" stroke="none" stroke-width="0.4"/><polygon points="466.8,281.5 520.5,312.5 520.5,167.5 466.8,136.5" fill="#8d887e" stroke="none" stroke-width="0.4"/><polygon points="487.6,124.5 541.3,155.5 520.5,167.5 466.8,136.5" fill="#f0e7d7" stroke="none" stroke-width="0.4"/>
<polygon points="164.1,282.2 110.0,313.5 110.0,168.5 164.1,137.2" fill="#b0a99d" stroke="none" stroke-width="0.4"/><polygon points="89.2,301.5 110.0,313.5 110.0,168.5 89.2,156.5" fill="#8d887e" stroke="none" stroke-width="0.4"/><polygon points="143.3,125.2 164.1,137.2 110.0,168.5 89.2,156.5" fill="#f0e7d7" stroke="none" stroke-width="0.4"/>
<polygon points="110.0,301.5 89.2,313.5 89.2,168.5 110.0,156.5" fill="#b0a99d" stroke="none" stroke-width="0.4"/><polygon points="35.8,282.7 89.2,313.5 89.2,168.5 35.8,137.7" fill="#8d887e" stroke="none" stroke-width="0.4"/><polygon points="56.6,125.7 110.0,156.5 89.2,168.5 35.8,137.7" fill="#f0e7d7" stroke="none" stroke-width="0.4"/>
<polygon points="290.1,197.5 125.6,292.5 125.6,144.5 290.1,49.5" fill="#bfe0f0aa" stroke="#7fa6bc" stroke-width="2"/><line x1="235.8" y1="228.8" x2="235.8" y2="80.8" stroke="#7fa6bc" stroke-width="1"/><line x1="181.5" y1="260.2" x2="181.5" y2="112.2" stroke="#7fa6bc" stroke-width="1"/>
<polygon points="-162.8,286.0 -219.1,318.5 -219.1,173.5 -162.8,141.0" fill="#b0a99d" stroke="none" stroke-width="0.4"/><polygon points="-239.9,306.5 -219.1,318.5 -219.1,173.5 -239.9,161.5" fill="#8d887e" stroke="none" stroke-width="0.4"/><polygon points="-183.6,129.0 -162.8,141.0 -219.1,173.5 -239.9,161.5" fill="#f0e7d7" stroke="none" stroke-width="0.4"/>
<polygon points="-47.6,222.5 90.9,302.5 90.9,154.5 -47.6,74.5" fill="#bfe0f0aa" stroke="#7fa6bc" stroke-width="2"/><line x1="-1.9" y1="248.9" x2="-1.9" y2="100.9" stroke="#7fa6bc" stroke-width="1"/><line x1="43.8" y1="275.3" x2="43.8" y2="127.3" stroke="#7fa6bc" stroke-width="1"/>
<polygon points="595.0,331.5 574.2,343.5 574.2,198.5 595.0,186.5" fill="#b0a99d" stroke="none" stroke-width="0.4"/><polygon points="520.5,312.5 574.2,343.5 574.2,198.5 520.5,167.5" fill="#8d887e" stroke="none" stroke-width="0.4"/><polygon points="541.3,155.5 595.0,186.5 574.2,198.5 520.5,167.5" fill="#f0e7d7" stroke="none" stroke-width="0.4"/>
<polygon points="342.1,197.5 558.6,322.5 558.6,174.5 342.1,49.5" fill="#bfe0f0aa" stroke="#7fa6bc" stroke-width="2"/><line x1="413.5" y1="238.7" x2="413.5" y2="90.7" stroke="#7fa6bc" stroke-width="1"/><line x1="485.0" y1="280.0" x2="485.0" y2="132.0" stroke="#7fa6bc" stroke-width="1"/>
<polygon points="-219.1,318.5 -275.4,351.0 -275.4,206.0 -219.1,173.5" fill="#b0a99d" stroke="none" stroke-width="0.4"/><polygon points="-296.2,339.0 -275.4,351.0 -275.4,206.0 -296.2,194.0" fill="#8d887e" stroke="none" stroke-width="0.4"/><polygon points="-239.9,161.5 -219.1,173.5 -275.4,206.0 -296.2,194.0" fill="#f0e7d7" stroke="none" stroke-width="0.4"/>
<polygon points="595.0,343.5 537.6,376.6 537.6,231.6 595.0,198.5" fill="#b0a99d" stroke="none" stroke-width="0.4"/><polygon points="516.8,364.6 537.6,376.6 537.6,231.6 516.8,219.6" fill="#8d887e" stroke="none" stroke-width="0.4"/><polygon points="574.2,186.5 595.0,198.5 537.6,231.6 516.8,219.6" fill="#f0e7d7" stroke="none" stroke-width="0.4"/>
<polygon points="-275.4,351.0 -331.7,383.5 -331.7,238.5 -275.4,206.0" fill="#b0a99d" stroke="none" stroke-width="0.4"/><polygon points="-352.5,371.5 -331.7,383.5 -331.7,238.5 -352.5,226.5" fill="#8d887e" stroke="none" stroke-width="0.4"/><polygon points="-296.2,194.0 -275.4,206.0 -331.7,238.5 -352.5,226.5" fill="#f0e7d7" stroke="none" stroke-width="0.4"/>
<polygon points="218.2,376.0 179.3,398.5 179.3,253.5 218.2,231.0" fill="#b0a99d" stroke="none" stroke-width="0.4"/><polygon points="167.1,391.5 179.3,398.5 179.3,253.5 167.1,246.5" fill="#8d887e" stroke="none" stroke-width="0.4"/><polygon points="206.1,224.0 218.2,231.0 179.3,253.5 167.1,246.5" fill="#f0e7d7" stroke="none" stroke-width="0.4"/>
<polygon points="537.6,376.6 480.2,409.7 480.2,264.7 537.6,231.6" fill="#b0a99d" stroke="none" stroke-width="0.4"/><polygon points="459.4,397.7 480.2,409.7 480.2,264.7 459.4,252.7" fill="#8d887e" stroke="none" stroke-width="0.4"/><polygon points="516.8,219.6 537.6,231.6 480.2,264.7 459.4,252.7" fill="#f0e7d7" stroke="none" stroke-width="0.4"/>
<polygon points="-331.7,383.5 -388.0,416.0 -388.0,271.0 -331.7,238.5" fill="#b0a99d" stroke="none" stroke-width="0.4"/><polygon points="-408.8,404.0 -388.0,416.0 -388.0,271.0 -408.8,259.0" fill="#8d887e" stroke="none" stroke-width="0.4"/><polygon points="-352.5,226.5 -331.7,238.5 -388.0,271.0 -408.8,259.0" fill="#f0e7d7" stroke="none" stroke-width="0.4"/>
<polygon points="179.3,398.5 140.3,421.0 140.3,276.0 179.3,253.5" fill="#b0a99d" stroke="none" stroke-width="0.4"/><polygon points="128.2,414.0 140.3,421.0 140.3,276.0 128.2,269.0" fill="#8d887e" stroke="none" stroke-width="0.4"/><polygon points="167.1,246.5 179.3,253.5 140.3,276.0 128.2,269.0" fill="#f0e7d7" stroke="none" stroke-width="0.4"/>
<polygon points="480.2,409.7 422.8,442.9 422.8,297.9 480.2,264.7" fill="#b0a99d" stroke="none" stroke-width="0.4"/><polygon points="402.1,430.9 422.8,442.9 422.8,297.9 402.1,285.9" fill="#8d887e" stroke="none" stroke-width="0.4"/><polygon points="459.4,252.7 480.2,264.7 422.8,297.9 402.1,285.9" fill="#f0e7d7" stroke="none" stroke-width="0.4"/>
<polygon points="-333.4,435.5 -354.2,447.5 -354.2,302.5 -333.4,290.5" fill="#b0a99d" stroke="none" stroke-width="0.4"/><polygon points="-408.8,416.0 -354.2,447.5 -354.2,302.5 -408.8,271.0" fill="#8d887e" stroke="none" stroke-width="0.4"/><polygon points="-388.0,259.0 -333.4,290.5 -354.2,302.5 -408.8,271.0" fill="#f0e7d7" stroke="none" stroke-width="0.4"/>
<polygon points="422.8,442.9 365.5,476.0 365.5,331.0 422.8,297.9" fill="#b0a99d" stroke="none" stroke-width="0.4"/><polygon points="344.7,464.0 365.5,476.0 365.5,331.0 344.7,319.0" fill="#8d887e" stroke="none" stroke-width="0.4"/><polygon points="402.1,285.9 422.8,297.9 365.5,331.0 344.7,319.0" fill="#f0e7d7" stroke="none" stroke-width="0.4"/>
<polygon points="-278.9,467.0 -299.6,479.0 -299.6,334.0 -278.9,322.0" fill="#b0a99d" stroke="none" stroke-width="0.4"/><polygon points="-354.2,447.5 -299.6,479.0 -299.6,334.0 -354.2,302.5" fill="#8d887e" stroke="none" stroke-width="0.4"/><polygon points="-333.4,290.5 -278.9,322.0 -299.6,334.0 -354.2,302.5" fill="#f0e7d7" stroke="none" stroke-width="0.4"/>
<polygon points="-786.4,466.0 -839.4,496.6 -839.4,351.6 -786.4,321.0" fill="#b0a99d" stroke="none" stroke-width="0.4"/><polygon points="-860.2,484.6 -839.4,496.6 -839.4,351.6 -860.2,339.6" fill="#8d887e" stroke="none" stroke-width="0.4"/><polygon points="-807.1,309.0 -786.4,321.0 -839.4,351.6 -860.2,339.6" fill="#f0e7d7" stroke="none" stroke-width="0.4"/>
<polygon points="-732.8,484.9 -753.6,496.9 -753.6,351.9 -732.8,339.9" fill="#b0a99d" stroke="none" stroke-width="0.4"/><polygon points="-807.1,466.0 -753.6,496.9 -753.6,351.9 -807.1,321.0" fill="#8d887e" stroke="none" stroke-width="0.4"/><polygon points="-786.4,309.0 -732.8,339.9 -753.6,351.9 -807.1,321.0" fill="#f0e7d7" stroke="none" stroke-width="0.4"/>
<polygon points="62.4,466.0 16.9,492.2 16.9,347.2 62.4,321.0" fill="#b0a99d" stroke="none" stroke-width="0.4"/><polygon points="4.8,485.2 16.9,492.2 16.9,347.2 4.8,340.2" fill="#8d887e" stroke="none" stroke-width="0.4"/><polygon points="50.2,314.0 62.4,321.0 16.9,347.2 4.8,340.2" fill="#f0e7d7" stroke="none" stroke-width="0.4"/>
<polygon points="361.1,473.5 312.4,501.6 312.4,356.6 361.1,328.5" fill="#b0a99d" stroke="none" stroke-width="0.4"/><polygon points="300.3,494.6 312.4,501.6 312.4,356.6 300.3,349.6" fill="#8d887e" stroke="none" stroke-width="0.4"/><polygon points="349.0,321.5 361.1,328.5 312.4,356.6 300.3,349.6" fill="#f0e7d7" stroke="none" stroke-width="0.4"/>
<polygon points="417.4,494.0 396.6,506.0 396.6,361.0 417.4,349.0" fill="#b0a99d" stroke="none" stroke-width="0.4"/><polygon points="344.7,476.0 396.6,506.0 396.6,361.0 344.7,331.0" fill="#8d887e" stroke="none" stroke-width="0.4"/><polygon points="365.5,319.0 417.4,349.0 396.6,361.0 344.7,331.0" fill="#f0e7d7" stroke="none" stroke-width="0.4"/>
<polygon points="-224.3,498.5 -245.1,510.5 -245.1,365.5 -224.3,353.5" fill="#b0a99d" stroke="none" stroke-width="0.4"/><polygon points="-299.6,479.0 -245.1,510.5 -245.1,365.5 -299.6,334.0" fill="#8d887e" stroke="none" stroke-width="0.4"/><polygon points="-278.9,322.0 -224.3,353.5 -245.1,365.5 -299.6,334.0" fill="#f0e7d7" stroke="none" stroke-width="0.4"/>
<polygon points="16.9,492.2 -28.6,518.5 -28.6,373.5 16.9,347.2" fill="#b0a99d" stroke="none" stroke-width="0.4"/><polygon points="-40.7,511.5 -28.6,518.5 -28.6,373.5 -40.7,366.5" fill="#8d887e" stroke="none" stroke-width="0.4"/><polygon points="4.8,340.2 16.9,347.2 -28.6,373.5 -40.7,366.5" fill="#f0e7d7" stroke="none" stroke-width="0.4"/>
<polygon points="-839.4,496.6 -892.4,527.2 -892.4,382.2 -839.4,351.6" fill="#b0a99d" stroke="none" stroke-width="0.4"/><polygon points="-913.2,515.2 -892.4,527.2 -892.4,382.2 -913.2,370.2" fill="#8d887e" stroke="none" stroke-width="0.4"/><polygon points="-860.2,339.6 -839.4,351.6 -892.4,382.2 -913.2,370.2" fill="#f0e7d7" stroke="none" stroke-width="0.4"/>
<polygon points="-679.2,515.9 -700.0,527.9 -700.0,382.9 -679.2,370.9" fill="#b0a99d" stroke="none" stroke-width="0.4"/><polygon points="-753.6,496.9 -700.0,527.9 -700.0,382.9 -753.6,351.9" fill="#8d887e" stroke="none" stroke-width="0.4"/><polygon points="-732.8,339.9 -679.2,370.9 -700.0,382.9 -753.6,351.9" fill="#f0e7d7" stroke="none" stroke-width="0.4"/>
<polygon points="312.4,501.6 263.7,529.7 263.7,384.7 312.4,356.6" fill="#b0a99d" stroke="none" stroke-width="0.4"/><polygon points="251.6,522.7 263.7,529.7 263.7,384.7 251.6,377.7" fill="#8d887e" stroke="none" stroke-width="0.4"/><polygon points="300.3,349.6 312.4,356.6 263.7,384.7 251.6,377.7" fill="#f0e7d7" stroke="none" stroke-width="0.4"/>
<polygon points="469.4,524.0 448.6,536.0 448.6,391.0 469.4,379.0" fill="#b0a99d" stroke="none" stroke-width="0.4"/><polygon points="396.6,506.0 448.6,536.0 448.6,391.0 396.6,361.0" fill="#8d887e" stroke="none" stroke-width="0.4"/><polygon points="417.4,349.0 469.4,379.0 448.6,391.0 396.6,361.0" fill="#f0e7d7" stroke="none" stroke-width="0.4"/>
<polygon points="-169.7,530.0 -190.5,542.0 -190.5,397.0 -169.7,385.0" fill="#b0a99d" stroke="none" stroke-width="0.4"/><polygon points="-245.1,510.5 -190.5,542.0 -190.5,397.0 -245.1,365.5" fill="#8d887e" stroke="none" stroke-width="0.4"/><polygon points="-224.3,353.5 -169.7,385.0 -190.5,397.0 -245.1,365.5" fill="#f0e7d7" stroke="none" stroke-width="0.4"/>
<polygon points="-834.0,531.5 -846.1,538.5 -846.1,393.5 -834.0,386.5" fill="#b0a99d" stroke="none" stroke-width="0.4"/><polygon points="-889.4,513.5 -846.1,538.5 -846.1,393.5 -889.4,368.5" fill="#8d887e" stroke="none" stroke-width="0.4"/><polygon points="-877.3,361.5 -834.0,386.5 -846.1,393.5 -889.4,368.5" fill="#f0e7d7" stroke="none" stroke-width="0.4"/>
<polygon points="-28.6,518.5 -74.0,544.7 -74.0,399.7 -28.6,373.5" fill="#b0a99d" stroke="none" stroke-width="0.4"/><polygon points="-86.2,537.7 -74.0,544.7 -74.0,399.7 -86.2,392.7" fill="#8d887e" stroke="none" stroke-width="0.4"/><polygon points="-40.7,366.5 -28.6,373.5 -74.0,399.7 -86.2,392.7" fill="#f0e7d7" stroke="none" stroke-width="0.4"/>
<polygon points="-892.4,527.2 -945.5,557.9 -945.5,412.9 -892.4,382.2" fill="#b0a99d" stroke="none" stroke-width="0.4"/><polygon points="-966.3,545.9 -945.5,557.9 -945.5,412.9 -966.3,400.9" fill="#8d887e" stroke="none" stroke-width="0.4"/><polygon points="-913.2,370.2 -892.4,382.2 -945.5,412.9 -966.3,400.9" fill="#f0e7d7" stroke="none" stroke-width="0.4"/>
<polygon points="-625.6,546.8 -646.4,558.8 -646.4,413.8 -625.6,401.8" fill="#b0a99d" stroke="none" stroke-width="0.4"/><polygon points="-700.0,527.9 -646.4,558.8 -646.4,413.8 -700.0,382.9" fill="#8d887e" stroke="none" stroke-width="0.4"/><polygon points="-679.2,370.9 -625.6,401.8 -646.4,413.8 -700.0,382.9" fill="#f0e7d7" stroke="none" stroke-width="0.4"/>
<polygon points="263.7,529.7 215.0,557.9 215.0,412.9 263.7,384.7" fill="#b0a99d" stroke="none" stroke-width="0.4"/><polygon points="202.9,550.9 215.0,557.9 215.0,412.9 202.9,405.9" fill="#8d887e" stroke="none" stroke-width="0.4"/><polygon points="251.6,377.7 263.7,384.7 215.0,412.9 202.9,405.9" fill="#f0e7d7" stroke="none" stroke-width="0.4"/>
<polygon points="521.3,554.0 500.6,566.0 500.6,421.0 521.3,409.0" fill="#b0a99d" stroke="none" stroke-width="0.4"/><polygon points="448.6,536.0 500.6,566.0 500.6,421.0 448.6,391.0" fill="#8d887e" stroke="none" stroke-width="0.4"/><polygon points="469.4,379.0 521.3,409.0 500.6,421.0 448.6,391.0" fill="#f0e7d7" stroke="none" stroke-width="0.4"/>
<polygon points="-115.2,561.5 -136.0,573.5 -136.0,428.5 -115.2,416.5" fill="#b0a99d" stroke="none" stroke-width="0.4"/><polygon points="-190.5,542.0 -136.0,573.5 -136.0,428.5 -190.5,397.0" fill="#8d887e" stroke="none" stroke-width="0.4"/><polygon points="-169.7,385.0 -115.2,416.5 -136.0,428.5 -190.5,397.0" fill="#f0e7d7" stroke="none" stroke-width="0.4"/>
<polygon points="-74.0,544.7 -119.5,571.0 -119.5,426.0 -74.0,399.7" fill="#b0a99d" stroke="none" stroke-width="0.4"/><polygon points="-131.6,564.0 -119.5,571.0 -119.5,426.0 -131.6,419.0" fill="#8d887e" stroke="none" stroke-width="0.4"/><polygon points="-86.2,392.7 -74.0,399.7 -119.5,426.0 -131.6,419.0" fill="#f0e7d7" stroke="none" stroke-width="0.4"/>
<polygon points="-945.5,557.9 -998.5,588.5 -998.5,443.5 -945.5,412.9" fill="#b0a99d" stroke="none" stroke-width="0.4"/><polygon points="-1019.3,576.5 -998.5,588.5 -998.5,443.5 -1019.3,431.5" fill="#8d887e" stroke="none" stroke-width="0.4"/><polygon points="-966.3,400.9 -945.5,412.9 -998.5,443.5 -1019.3,431.5" fill="#f0e7d7" stroke="none" stroke-width="0.4"/>
<polygon points="-572.0,577.7 -592.8,589.7 -592.8,444.7 -572.0,432.7" fill="#b0a99d" stroke="none" stroke-width="0.4"/><polygon points="-646.4,558.8 -592.8,589.7 -592.8,444.7 -646.4,413.8" fill="#8d887e" stroke="none" stroke-width="0.4"/><polygon points="-625.6,401.8 -572.0,432.7 -592.8,444.7 -646.4,413.8" fill="#f0e7d7" stroke="none" stroke-width="0.4"/>
<polygon points="215.0,557.9 166.3,586.0 166.3,441.0 215.0,412.9" fill="#b0a99d" stroke="none" stroke-width="0.4"/><polygon points="154.2,579.0 166.3,586.0 166.3,441.0 154.2,434.0" fill="#8d887e" stroke="none" stroke-width="0.4"/><polygon points="202.9,405.9 215.0,412.9 166.3,441.0 154.2,434.0" fill="#f0e7d7" stroke="none" stroke-width="0.4"/>
<polygon points="573.3,584.0 552.5,596.0 552.5,451.0 573.3,439.0" fill="#b0a99d" stroke="none" stroke-width="0.4"/><polygon points="500.6,566.0 552.5,596.0 552.5,451.0 500.6,421.0" fill="#8d887e" stroke="none" stroke-width="0.4"/><polygon points="521.3,409.0 573.3,439.0 552.5,451.0 500.6,421.0" fill="#f0e7d7" stroke="none" stroke-width="0.4"/>
<polygon points="-115.2,573.5 -163.7,601.5 -163.7,456.5 -115.2,428.5" fill="#b0a99d" stroke="none" stroke-width="0.4"/><polygon points="-184.5,589.5 -163.7,601.5 -163.7,456.5 -184.5,444.5" fill="#8d887e" stroke="none" stroke-width="0.4"/><polygon points="-136.0,416.5 -115.2,428.5 -163.7,456.5 -184.5,444.5" fill="#f0e7d7" stroke="none" stroke-width="0.4"/>
<polygon points="-721.4,596.5 -733.5,603.5 -733.5,458.5 -721.4,451.5" fill="#b0a99d" stroke="none" stroke-width="0.4"/><polygon points="-776.8,578.5 -733.5,603.5 -733.5,458.5 -776.8,433.5" fill="#8d887e" stroke="none" stroke-width="0.4"/><polygon points="-764.7,426.5 -721.4,451.5 -733.5,458.5 -776.8,433.5" fill="#f0e7d7" stroke="none" stroke-width="0.4"/>
<polygon points="-998.5,588.5 -1051.6,619.1 -1051.6,474.1 -998.5,443.5" fill="#b0a99d" stroke="none" stroke-width="0.4"/><polygon points="-1072.4,607.1 -1051.6,619.1 -1051.6,474.1 -1072.4,462.1" fill="#8d887e" stroke="none" stroke-width="0.4"/><polygon points="-1019.3,431.5 -998.5,443.5 -1051.6,474.1 -1072.4,462.1" fill="#f0e7d7" stroke="none" stroke-width="0.4"/>
<polygon points="-518.4,608.7 -539.2,620.7 -539.2,475.7 -518.4,463.7" fill="#b0a99d" stroke="none" stroke-width="0.4"/><polygon points="-592.8,589.7 -539.2,620.7 -539.2,475.7 -592.8,444.7" fill="#8d887e" stroke="none" stroke-width="0.4"/><polygon points="-572.0,432.7 -518.4,463.7 -539.2,475.7 -592.8,444.7" fill="#f0e7d7" stroke="none" stroke-width="0.4"/>
<polygon points="226.9,614.0 214.8,621.0 214.8,476.0 226.9,469.0" fill="#b0a99d" stroke="none" stroke-width="0.4"/><polygon points="154.2,586.0 214.8,621.0 214.8,476.0 154.2,441.0" fill="#8d887e" stroke="none" stroke-width="0.4"/><polygon points="166.3,434.0 226.9,469.0 214.8,476.0 154.2,441.0" fill="#f0e7d7" stroke="none" stroke-width="0.4"/>
<polygon points="625.3,614.0 604.5,626.0 604.5,481.0 625.3,469.0" fill="#b0a99d" stroke="none" stroke-width="0.4"/><polygon points="552.5,596.0 604.5,626.0 604.5,481.0 552.5,451.0" fill="#8d887e" stroke="none" stroke-width="0.4"/><polygon points="573.3,439.0 625.3,469.0 604.5,481.0 552.5,451.0" fill="#f0e7d7" stroke="none" stroke-width="0.4"/>
<polygon points="-163.7,601.5 -212.2,629.5 -212.2,484.5 -163.7,456.5" fill="#b0a99d" stroke="none" stroke-width="0.4"/><polygon points="-233.0,617.5 -212.2,629.5 -212.2,484.5 -233.0,472.5" fill="#8d887e" stroke="none" stroke-width="0.4"/><polygon points="-184.5,444.5 -163.7,456.5 -212.2,484.5 -233.0,472.5" fill="#f0e7d7" stroke="none" stroke-width="0.4"/>
<polygon points="381.1,410.0 606.2,540.0 606.2,467.0 381.1,337.0" fill="#bfe0f0aa" stroke="#7fa6bc" stroke-width="2"/><line x1="455.4" y1="452.9" x2="455.4" y2="379.9" stroke="#7fa6bc" stroke-width="1"/><line x1="529.7" y1="495.8" x2="529.7" y2="422.8" stroke="#7fa6bc" stroke-width="1"/>
<polygon points="-721.4,603.5 -777.7,636.0 -777.7,491.0 -721.4,458.5" fill="#b0a99d" stroke="none" stroke-width="0.4"/><polygon points="-789.8,629.0 -777.7,636.0 -777.7,491.0 -789.8,484.0" fill="#8d887e" stroke="none" stroke-width="0.4"/><polygon points="-733.5,451.5 -721.4,458.5 -777.7,491.0 -789.8,484.0" fill="#f0e7d7" stroke="none" stroke-width="0.4"/>
<polygon points="-1051.6,619.1 -1104.6,649.7 -1104.6,504.7 -1051.6,474.1" fill="#b0a99d" stroke="none" stroke-width="0.4"/><polygon points="-1125.4,637.7 -1104.6,649.7 -1104.6,504.7 -1125.4,492.7" fill="#8d887e" stroke="none" stroke-width="0.4"/><polygon points="-1072.4,462.1 -1051.6,474.1 -1104.6,504.7 -1125.4,492.7" fill="#f0e7d7" stroke="none" stroke-width="0.4"/>
<polygon points="-464.8,639.6 -485.6,651.6 -485.6,506.6 -464.8,494.6" fill="#b0a99d" stroke="none" stroke-width="0.4"/><polygon points="-539.2,620.7 -485.6,651.6 -485.6,506.6 -539.2,475.7" fill="#8d887e" stroke="none" stroke-width="0.4"/><polygon points="-518.4,463.7 -464.8,494.6 -485.6,506.6 -539.2,475.7" fill="#f0e7d7" stroke="none" stroke-width="0.4"/>
<polygon points="677.2,644.0 656.4,656.0 656.4,511.0 677.2,499.0" fill="#b0a99d" stroke="none" stroke-width="0.4"/><polygon points="604.5,626.0 656.4,656.0 656.4,511.0 604.5,481.0" fill="#8d887e" stroke="none" stroke-width="0.4"/><polygon points="625.3,469.0 677.2,499.0 656.4,511.0 604.5,481.0" fill="#f0e7d7" stroke="none" stroke-width="0.4"/>
<polygon points="-212.2,629.5 -260.7,657.5 -260.7,512.5 -212.2,484.5" fill="#b0a99d" stroke="none" stroke-width="0.4"/><polygon points="-281.5,645.5 -260.7,657.5 -260.7,512.5 -281.5,500.5" fill="#8d887e" stroke="none" stroke-width="0.4"/><polygon points="-233.0,472.5 -212.2,484.5 -260.7,512.5 -281.5,500.5" fill="#f0e7d7" stroke="none" stroke-width="0.4"/>
<polygon points="-777.7,636.0 -834.0,668.5 -834.0,523.5 -777.7,491.0" fill="#b0a99d" stroke="none" stroke-width="0.4"/><polygon points="-846.1,661.5 -834.0,668.5 -834.0,523.5 -846.1,516.5" fill="#8d887e" stroke="none" stroke-width="0.4"/><polygon points="-789.8,484.0 -777.7,491.0 -834.0,523.5 -846.1,516.5" fill="#f0e7d7" stroke="none" stroke-width="0.4"/>
<polygon points="646.9,638.5 598.2,666.6 598.2,521.6 646.9,493.5" fill="#b0a99d" stroke="none" stroke-width="0.4"/><polygon points="586.1,659.6 598.2,666.6 598.2,521.6 586.1,514.6" fill="#8d887e" stroke="none" stroke-width="0.4"/><polygon points="634.8,486.5 646.9,493.5 598.2,521.6 586.1,514.6" fill="#f0e7d7" stroke="none" stroke-width="0.4"/>
<polygon points="-1104.6,649.7 -1157.7,680.4 -1157.7,535.4 -1104.6,504.7" fill="#b0a99d" stroke="none" stroke-width="0.4"/><polygon points="-1178.4,668.4 -1157.7,680.4 -1157.7,535.4 -1178.4,523.4" fill="#8d887e" stroke="none" stroke-width="0.4"/><polygon points="-1125.4,492.7 -1104.6,504.7 -1157.7,535.4 -1178.4,523.4" fill="#f0e7d7" stroke="none" stroke-width="0.4"/>
<polygon points="-411.3,670.6 -432.0,682.6 -432.0,537.6 -411.3,525.6" fill="#b0a99d" stroke="none" stroke-width="0.4"/><polygon points="-485.6,651.6 -432.0,682.6 -432.0,537.6 -485.6,506.6" fill="#8d887e" stroke="none" stroke-width="0.4"/><polygon points="-464.8,494.6 -411.3,525.6 -432.0,537.6 -485.6,506.6" fill="#f0e7d7" stroke="none" stroke-width="0.4"/>
<polygon points="729.2,674.0 708.4,686.0 708.4,541.0 729.2,529.0" fill="#b0a99d" stroke="none" stroke-width="0.4"/><polygon points="656.4,656.0 708.4,686.0 708.4,541.0 656.4,511.0" fill="#8d887e" stroke="none" stroke-width="0.4"/><polygon points="677.2,499.0 729.2,529.0 708.4,541.0 656.4,511.0" fill="#f0e7d7" stroke="none" stroke-width="0.4"/>
<polygon points="-260.7,657.5 -309.2,685.5 -309.2,540.5 -260.7,512.5" fill="#b0a99d" stroke="none" stroke-width="0.4"/><polygon points="-330.0,673.5 -309.2,685.5 -309.2,540.5 -330.0,528.5" fill="#8d887e" stroke="none" stroke-width="0.4"/><polygon points="-281.5,500.5 -260.7,512.5 -309.2,540.5 -330.0,528.5" fill="#f0e7d7" stroke="none" stroke-width="0.4"/>
<polygon points="598.2,666.6 549.5,694.7 549.5,549.7 598.2,521.6" fill="#b0a99d" stroke="none" stroke-width="0.4"/><polygon points="537.4,687.7 549.5,694.7 549.5,549.7 537.4,542.7" fill="#8d887e" stroke="none" stroke-width="0.4"/><polygon points="586.1,514.6 598.2,521.6 549.5,549.7 537.4,542.7" fill="#f0e7d7" stroke="none" stroke-width="0.4"/>
<polygon points="-834.0,668.5 -890.3,701.0 -890.3,556.0 -834.0,523.5" fill="#b0a99d" stroke="none" stroke-width="0.4"/><polygon points="-902.4,694.0 -890.3,701.0 -890.3,556.0 -902.4,549.0" fill="#8d887e" stroke="none" stroke-width="0.4"/><polygon points="-846.1,516.5 -834.0,523.5 -890.3,556.0 -902.4,549.0" fill="#f0e7d7" stroke="none" stroke-width="0.4"/>
<polygon points="-1157.7,680.4 -1210.7,711.0 -1210.7,566.0 -1157.7,535.4" fill="#b0a99d" stroke="none" stroke-width="0.4"/><polygon points="-1231.5,699.0 -1210.7,711.0 -1210.7,566.0 -1231.5,554.0" fill="#8d887e" stroke="none" stroke-width="0.4"/><polygon points="-1178.4,523.4 -1157.7,535.4 -1210.7,566.0 -1231.5,554.0" fill="#f0e7d7" stroke="none" stroke-width="0.4"/>
<polygon points="-357.7,701.5 -378.5,713.5 -378.5,568.5 -357.7,556.5" fill="#b0a99d" stroke="none" stroke-width="0.4"/><polygon points="-432.0,682.6 -378.5,713.5 -378.5,568.5 -432.0,537.6" fill="#8d887e" stroke="none" stroke-width="0.4"/><polygon points="-411.3,525.6 -357.7,556.5 -378.5,568.5 -432.0,537.6" fill="#f0e7d7" stroke="none" stroke-width="0.4"/>
<polygon points="-309.2,685.5 -357.7,713.5 -357.7,568.5 -309.2,540.5" fill="#b0a99d" stroke="none" stroke-width="0.4"/><polygon points="-378.5,701.5 -357.7,713.5 -357.7,568.5 -378.5,556.5" fill="#8d887e" stroke="none" stroke-width="0.4"/><polygon points="-330.0,528.5 -309.2,540.5 -357.7,568.5 -378.5,556.5" fill="#f0e7d7" stroke="none" stroke-width="0.4"/>
<polygon points="781.2,704.0 760.4,716.0 760.4,571.0 781.2,559.0" fill="#b0a99d" stroke="none" stroke-width="0.4"/><polygon points="708.4,686.0 760.4,716.0 760.4,571.0 708.4,541.0" fill="#8d887e" stroke="none" stroke-width="0.4"/><polygon points="729.2,529.0 781.2,559.0 760.4,571.0 708.4,541.0" fill="#f0e7d7" stroke="none" stroke-width="0.4"/>
<polygon points="915.4,698.5 874.3,722.2 874.3,577.2 915.4,553.5" fill="#b0a99d" stroke="none" stroke-width="0.4"/><polygon points="853.5,710.2 874.3,722.2 874.3,577.2 853.5,565.2" fill="#8d887e" stroke="none" stroke-width="0.4"/><polygon points="894.6,541.5 915.4,553.5 874.3,577.2 853.5,565.2" fill="#f0e7d7" stroke="none" stroke-width="0.4"/>
<polygon points="549.5,694.7 500.8,722.9 500.8,577.9 549.5,549.7" fill="#b0a99d" stroke="none" stroke-width="0.4"/><polygon points="488.7,715.9 500.8,722.9 500.8,577.9 488.7,570.9" fill="#8d887e" stroke="none" stroke-width="0.4"/><polygon points="537.4,542.7 549.5,549.7 500.8,577.9 488.7,570.9" fill="#f0e7d7" stroke="none" stroke-width="0.4"/>
<polygon points="967.4,716.5 946.6,728.5 946.6,583.5 967.4,571.5" fill="#b0a99d" stroke="none" stroke-width="0.4"/><polygon points="894.6,698.5 946.6,728.5 946.6,583.5 894.6,553.5" fill="#8d887e" stroke="none" stroke-width="0.4"/><polygon points="915.4,541.5 967.4,571.5 946.6,583.5 894.6,553.5" fill="#f0e7d7" stroke="none" stroke-width="0.4"/>
<polygon points="412.0,720.9 399.9,727.9 399.9,582.9 412.0,575.9" fill="#b0a99d" stroke="none" stroke-width="0.4"/><polygon points="353.3,701.0 399.9,727.9 399.9,582.9 353.3,556.0" fill="#8d887e" stroke="none" stroke-width="0.4"/><polygon points="365.5,549.0 412.0,575.9 399.9,582.9 353.3,556.0" fill="#f0e7d7" stroke="none" stroke-width="0.4"/>
<polygon points="-890.3,701.0 -946.6,733.5 -946.6,588.5 -890.3,556.0" fill="#b0a99d" stroke="none" stroke-width="0.4"/><polygon points="-958.7,726.5 -946.6,733.5 -946.6,588.5 -958.7,581.5" fill="#8d887e" stroke="none" stroke-width="0.4"/><polygon points="-902.4,549.0 -890.3,556.0 -946.6,588.5 -958.7,581.5" fill="#f0e7d7" stroke="none" stroke-width="0.4"/>
<polygon points="-1158.3,729.2 -1179.1,741.2 -1179.1,596.2 -1158.3,584.2" fill="#b0a99d" stroke="none" stroke-width="0.4"/><polygon points="-1231.5,711.0 -1179.1,741.2 -1179.1,596.2 -1231.5,566.0" fill="#8d887e" stroke="none" stroke-width="0.4"/><polygon points="-1210.7,554.0 -1158.3,584.2 -1179.1,596.2 -1231.5,566.0" fill="#f0e7d7" stroke="none" stroke-width="0.4"/>
<polygon points="833.1,734.0 812.3,746.0 812.3,601.0 833.1,589.0" fill="#b0a99d" stroke="none" stroke-width="0.4"/><polygon points="760.4,716.0 812.3,746.0 812.3,601.0 760.4,571.0" fill="#8d887e" stroke="none" stroke-width="0.4"/><polygon points="781.2,559.0 833.1,589.0 812.3,601.0 760.4,571.0" fill="#f0e7d7" stroke="none" stroke-width="0.4"/>
<polygon points="666.8,650.0 796.7,725.0 796.7,577.0 666.8,502.0" fill="#bfe0f0aa" stroke="#7fa6bc" stroke-width="2"/><line x1="709.7" y1="674.7" x2="709.7" y2="526.7" stroke="#7fa6bc" stroke-width="1"/><line x1="752.6" y1="699.5" x2="752.6" y2="551.5" stroke="#7fa6bc" stroke-width="1"/>
<polygon points="874.3,722.2 833.1,746.0 833.1,601.0 874.3,577.2" fill="#b0a99d" stroke="none" stroke-width="0.4"/><polygon points="812.3,734.0 833.1,746.0 833.1,601.0 812.3,589.0" fill="#8d887e" stroke="none" stroke-width="0.4"/><polygon points="853.5,565.2 874.3,577.2 833.1,601.0 812.3,589.0" fill="#f0e7d7" stroke="none" stroke-width="0.4"/>
<polygon points="500.8,722.9 452.1,751.0 452.1,606.0 500.8,577.9" fill="#b0a99d" stroke="none" stroke-width="0.4"/><polygon points="439.9,744.0 452.1,751.0 452.1,606.0 439.9,599.0" fill="#8d887e" stroke="none" stroke-width="0.4"/><polygon points="488.7,570.9 500.8,577.9 452.1,606.0 439.9,599.0" fill="#f0e7d7" stroke="none" stroke-width="0.4"/>
<polygon points="1019.3,746.5 998.5,758.5 998.5,613.5 1019.3,601.5" fill="#b0a99d" stroke="none" stroke-width="0.4"/><polygon points="946.6,728.5 998.5,758.5 998.5,613.5 946.6,583.5" fill="#8d887e" stroke="none" stroke-width="0.4"/><polygon points="967.4,571.5 1019.3,601.5 998.5,613.5 946.6,583.5" fill="#f0e7d7" stroke="none" stroke-width="0.4"/>
<polygon points="458.6,747.7 446.4,754.7 446.4,609.7 458.6,602.7" fill="#b0a99d" stroke="none" stroke-width="0.4"/><polygon points="399.9,727.9 446.4,754.7 446.4,609.7 399.9,582.9" fill="#8d887e" stroke="none" stroke-width="0.4"/><polygon points="412.0,575.9 458.6,602.7 446.4,609.7 399.9,582.9" fill="#f0e7d7" stroke="none" stroke-width="0.4"/>
<polygon points="-946.6,733.5 -1002.9,766.0 -1002.9,621.0 -946.6,588.5" fill="#b0a99d" stroke="none" stroke-width="0.4"/><polygon points="-1015.0,759.0 -1002.9,766.0 -1002.9,621.0 -1015.0,614.0" fill="#8d887e" stroke="none" stroke-width="0.4"/><polygon points="-958.7,581.5 -946.6,588.5 -1002.9,621.0 -1015.0,614.0" fill="#f0e7d7" stroke="none" stroke-width="0.4"/>
<polygon points="-1105.9,759.5 -1126.7,771.5 -1126.7,626.5 -1105.9,614.5" fill="#b0a99d" stroke="none" stroke-width="0.4"/><polygon points="-1179.1,741.2 -1126.7,771.5 -1126.7,626.5 -1179.1,596.2" fill="#8d887e" stroke="none" stroke-width="0.4"/><polygon points="-1158.3,584.2 -1105.9,614.5 -1126.7,626.5 -1179.1,596.2" fill="#f0e7d7" stroke="none" stroke-width="0.4"/>
<polygon points="828.8,743.5 780.1,771.6 780.1,626.6 828.8,598.5" fill="#b0a99d" stroke="none" stroke-width="0.4"/><polygon points="767.9,764.6 780.1,771.6 780.1,626.6 767.9,619.6" fill="#8d887e" stroke="none" stroke-width="0.4"/><polygon points="816.7,591.5 828.8,598.5 780.1,626.6 767.9,619.6" fill="#f0e7d7" stroke="none" stroke-width="0.4"/>
<polygon points="505.1,774.6 493.0,781.6 493.0,636.6 505.1,629.6" fill="#b0a99d" stroke="none" stroke-width="0.4"/><polygon points="446.4,754.7 493.0,781.6 493.0,636.6 446.4,609.7" fill="#8d887e" stroke="none" stroke-width="0.4"/><polygon points="458.6,602.7 505.1,629.6 493.0,636.6 446.4,609.7" fill="#f0e7d7" stroke="none" stroke-width="0.4"/>
<polygon points="1071.3,776.5 1050.5,788.5 1050.5,643.5 1071.3,631.5" fill="#b0a99d" stroke="none" stroke-width="0.4"/><polygon points="998.5,758.5 1050.5,788.5 1050.5,643.5 998.5,613.5" fill="#8d887e" stroke="none" stroke-width="0.4"/><polygon points="1019.3,601.5 1071.3,631.5 1050.5,643.5 998.5,613.5" fill="#f0e7d7" stroke="none" stroke-width="0.4"/>
<polygon points="-452.9,763.5 -502.7,792.2 -502.7,647.2 -452.9,618.5" fill="#b0a99d" stroke="none" stroke-width="0.4"/><polygon points="-514.9,785.2 -502.7,792.2 -502.7,647.2 -514.9,640.2" fill="#8d887e" stroke="none" stroke-width="0.4"/><polygon points="-465.1,611.5 -452.9,618.5 -502.7,647.2 -514.9,640.2" fill="#f0e7d7" stroke="none" stroke-width="0.4"/>
<polygon points="-1002.9,766.0 -1059.1,798.5 -1059.1,653.5 -1002.9,621.0" fill="#b0a99d" stroke="none" stroke-width="0.4"/><polygon points="-1071.3,791.5 -1059.1,798.5 -1059.1,653.5 -1071.3,646.5" fill="#8d887e" stroke="none" stroke-width="0.4"/><polygon points="-1015.0,614.0 -1002.9,621.0 -1059.1,653.5 -1071.3,646.5" fill="#f0e7d7" stroke="none" stroke-width="0.4"/>
<polygon points="-1053.5,789.7 -1074.3,801.7 -1074.3,656.7 -1053.5,644.7" fill="#b0a99d" stroke="none" stroke-width="0.4"/><polygon points="-1126.7,771.5 -1074.3,801.7 -1074.3,656.7 -1126.7,626.5" fill="#8d887e" stroke="none" stroke-width="0.4"/><polygon points="-1105.9,614.5 -1053.5,644.7 -1074.3,656.7 -1126.7,626.5" fill="#f0e7d7" stroke="none" stroke-width="0.4"/>
<polygon points="780.1,771.6 731.4,799.7 731.4,654.7 780.1,626.6" fill="#b0a99d" stroke="none" stroke-width="0.4"/><polygon points="719.2,792.7 731.4,799.7 731.4,654.7 719.2,647.7" fill="#8d887e" stroke="none" stroke-width="0.4"/><polygon points="767.9,619.6 780.1,626.6 731.4,654.7 719.2,647.7" fill="#f0e7d7" stroke="none" stroke-width="0.4"/>
<polygon points="-1203.8,715.0 -1082.5,785.0 -1082.5,637.0 -1203.8,567.0" fill="#bfe0f0aa" stroke="#7fa6bc" stroke-width="2"/><line x1="-1163.8" y1="738.1" x2="-1163.8" y2="590.1" stroke="#7fa6bc" stroke-width="1"/><line x1="-1123.8" y1="761.2" x2="-1123.8" y2="613.2" stroke="#7fa6bc" stroke-width="1"/>
<polygon points="551.7,801.5 539.5,808.5 539.5,663.5 551.7,656.5" fill="#b0a99d" stroke="none" stroke-width="0.4"/><polygon points="493.0,781.6 539.5,808.5 539.5,663.5 493.0,636.6" fill="#8d887e" stroke="none" stroke-width="0.4"/><polygon points="505.1,629.6 551.7,656.5 539.5,663.5 493.0,636.6" fill="#f0e7d7" stroke="none" stroke-width="0.4"/>
<polygon points="1123.2,806.5 1102.5,818.5 1102.5,673.5 1123.2,661.5" fill="#b0a99d" stroke="none" stroke-width="0.4"/><polygon points="1050.5,788.5 1102.5,818.5 1102.5,673.5 1050.5,643.5" fill="#8d887e" stroke="none" stroke-width="0.4"/><polygon points="1071.3,631.5 1123.2,661.5 1102.5,673.5 1050.5,643.5" fill="#f0e7d7" stroke="none" stroke-width="0.4"/>
<polygon points="-502.7,792.2 -552.5,821.0 -552.5,676.0 -502.7,647.2" fill="#b0a99d" stroke="none" stroke-width="0.4"/><polygon points="-564.6,814.0 -552.5,821.0 -552.5,676.0 -564.6,669.0" fill="#8d887e" stroke="none" stroke-width="0.4"/><polygon points="-514.9,640.2 -502.7,647.2 -552.5,676.0 -564.6,669.0" fill="#f0e7d7" stroke="none" stroke-width="0.4"/>
<polygon points="731.4,799.7 682.6,827.9 682.6,682.9 731.4,654.7" fill="#b0a99d" stroke="none" stroke-width="0.4"/><polygon points="670.5,820.9 682.6,827.9 682.6,682.9 670.5,675.9" fill="#8d887e" stroke="none" stroke-width="0.4"/><polygon points="719.2,647.7 731.4,654.7 682.6,682.9 670.5,675.9" fill="#f0e7d7" stroke="none" stroke-width="0.4"/>
<polygon points="-1001.1,820.0 -1021.9,832.0 -1021.9,687.0 -1001.1,675.0" fill="#b0a99d" stroke="none" stroke-width="0.4"/><polygon points="-1074.3,801.7 -1021.9,832.0 -1021.9,687.0 -1074.3,656.7" fill="#8d887e" stroke="none" stroke-width="0.4"/><polygon points="-1053.5,644.7 -1001.1,675.0 -1021.9,687.0 -1074.3,656.7" fill="#f0e7d7" stroke="none" stroke-width="0.4"/>
<polygon points="1175.2,836.5 1154.4,848.5 1154.4,703.5 1175.2,691.5" fill="#b0a99d" stroke="none" stroke-width="0.4"/><polygon points="1102.5,818.5 1154.4,848.5 1154.4,703.5 1102.5,673.5" fill="#8d887e" stroke="none" stroke-width="0.4"/><polygon points="1123.2,661.5 1175.2,691.5 1154.4,703.5 1102.5,673.5" fill="#f0e7d7" stroke="none" stroke-width="0.4"/>
<polygon points="-552.5,821.0 -602.3,849.7 -602.3,704.7 -552.5,676.0" fill="#b0a99d" stroke="none" stroke-width="0.4"/><polygon points="-614.4,842.7 -602.3,849.7 -602.3,704.7 -614.4,697.7" fill="#8d887e" stroke="none" stroke-width="0.4"/><polygon points="-564.6,669.0 -552.5,676.0 -602.3,704.7 -614.4,697.7" fill="#f0e7d7" stroke="none" stroke-width="0.4"/>
<polygon points="922.3,627.5 1147.5,757.5 1147.5,684.5 922.3,554.5" fill="#bfe0f0aa" stroke="#7fa6bc" stroke-width="2"/><line x1="996.6" y1="670.4" x2="996.6" y2="597.4" stroke="#7fa6bc" stroke-width="1"/><line x1="1070.9" y1="713.3" x2="1070.9" y2="640.3" stroke="#7fa6bc" stroke-width="1"/>
<polygon points="682.6,827.9 633.9,856.0 633.9,711.0 682.6,682.9" fill="#b0a99d" stroke="none" stroke-width="0.4"/><polygon points="621.8,849.0 633.9,856.0 633.9,711.0 621.8,704.0" fill="#8d887e" stroke="none" stroke-width="0.4"/><polygon points="670.5,675.9 682.6,682.9 633.9,711.0 621.8,704.0" fill="#f0e7d7" stroke="none" stroke-width="0.4"/>
<polygon points="-948.7,850.2 -969.5,862.2 -969.5,717.2 -948.7,705.2" fill="#b0a99d" stroke="none" stroke-width="0.4"/><polygon points="-1021.9,832.0 -969.5,862.2 -969.5,717.2 -1021.9,687.0" fill="#8d887e" stroke="none" stroke-width="0.4"/><polygon points="-1001.1,675.0 -948.7,705.2 -969.5,717.2 -1021.9,687.0" fill="#f0e7d7" stroke="none" stroke-width="0.4"/>
<polygon points="1227.2,866.5 1206.4,878.5 1206.4,733.5 1227.2,721.5" fill="#b0a99d" stroke="none" stroke-width="0.4"/><polygon points="1154.4,848.5 1206.4,878.5 1206.4,733.5 1154.4,703.5" fill="#8d887e" stroke="none" stroke-width="0.4"/><polygon points="1175.2,691.5 1227.2,721.5 1206.4,733.5 1154.4,703.5" fill="#f0e7d7" stroke="none" stroke-width="0.4"/>
<polygon points="1170.9,846.0 1115.4,878.0 1115.4,733.0 1170.9,701.0" fill="#b0a99d" stroke="none" stroke-width="0.4"/><polygon points="1103.3,871.0 1115.4,878.0 1115.4,733.0 1103.3,726.0" fill="#8d887e" stroke="none" stroke-width="0.4"/><polygon points="1158.7,694.0 1170.9,701.0 1115.4,733.0 1103.3,726.0" fill="#f0e7d7" stroke="none" stroke-width="0.4"/>
<polygon points="-602.3,849.7 -652.1,878.5 -652.1,733.5 -602.3,704.7" fill="#b0a99d" stroke="none" stroke-width="0.4"/><polygon points="-664.2,871.5 -652.1,878.5 -652.1,733.5 -664.2,726.5" fill="#8d887e" stroke="none" stroke-width="0.4"/><polygon points="-614.4,697.7 -602.3,704.7 -652.1,733.5 -664.2,726.5" fill="#f0e7d7" stroke="none" stroke-width="0.4"/>
<polygon points="680.5,875.9 668.4,882.9 668.4,737.9 680.5,730.9" fill="#b0a99d" stroke="none" stroke-width="0.4"/><polygon points="621.8,856.0 668.4,882.9 668.4,737.9 621.8,711.0" fill="#8d887e" stroke="none" stroke-width="0.4"/><polygon points="633.9,704.0 680.5,730.9 668.4,737.9 621.8,711.0" fill="#f0e7d7" stroke="none" stroke-width="0.4"/>
<polygon points="-896.3,880.5 -917.1,892.5 -917.1,747.5 -896.3,735.5" fill="#b0a99d" stroke="none" stroke-width="0.4"/><polygon points="-969.5,862.2 -917.1,892.5 -917.1,747.5 -969.5,717.2" fill="#8d887e" stroke="none" stroke-width="0.4"/><polygon points="-948.7,705.2 -896.3,735.5 -917.1,747.5 -969.5,717.2" fill="#f0e7d7" stroke="none" stroke-width="0.4"/>
<polygon points="1279.1,896.5 1258.3,908.5 1258.3,763.5 1279.1,751.5" fill="#b0a99d" stroke="none" stroke-width="0.4"/><polygon points="1206.4,878.5 1258.3,908.5 1258.3,763.5 1206.4,733.5" fill="#8d887e" stroke="none" stroke-width="0.4"/><polygon points="1227.2,721.5 1279.1,751.5 1258.3,763.5 1206.4,733.5" fill="#f0e7d7" stroke="none" stroke-width="0.4"/>
<polygon points="-652.1,878.5 -696.9,904.3 -696.9,759.3 -652.1,733.5" fill="#b0a99d" stroke="none" stroke-width="0.4"/><polygon points="-709.0,897.3 -696.9,904.3 -696.9,759.3 -709.0,752.3" fill="#8d887e" stroke="none" stroke-width="0.4"/><polygon points="-664.2,726.5 -652.1,733.5 -696.9,759.3 -709.0,752.3" fill="#f0e7d7" stroke="none" stroke-width="0.4"/>
<polygon points="1115.4,878.0 1060.0,910.0 1060.0,765.0 1115.4,733.0" fill="#b0a99d" stroke="none" stroke-width="0.4"/><polygon points="1047.9,903.0 1060.0,910.0 1060.0,765.0 1047.9,758.0" fill="#8d887e" stroke="none" stroke-width="0.4"/><polygon points="1103.3,726.0 1115.4,733.0 1060.0,765.0 1047.9,758.0" fill="#f0e7d7" stroke="none" stroke-width="0.4"/>
<polygon points="727.0,902.7 714.9,909.7 714.9,764.7 727.0,757.7" fill="#b0a99d" stroke="none" stroke-width="0.4"/><polygon points="668.4,882.9 714.9,909.7 714.9,764.7 668.4,737.9" fill="#8d887e" stroke="none" stroke-width="0.4"/><polygon points="680.5,730.9 727.0,757.7 714.9,764.7 668.4,737.9" fill="#f0e7d7" stroke="none" stroke-width="0.4"/>
<polygon points="-843.9,910.7 -864.7,922.7 -864.7,777.7 -843.9,765.7" fill="#b0a99d" stroke="none" stroke-width="0.4"/><polygon points="-917.1,892.5 -864.7,922.7 -864.7,777.7 -917.1,747.5" fill="#8d887e" stroke="none" stroke-width="0.4"/><polygon points="-896.3,735.5 -843.9,765.7 -864.7,777.7 -917.1,747.5" fill="#f0e7d7" stroke="none" stroke-width="0.4"/>
<polygon points="-696.9,904.3 -741.6,930.2 -741.6,785.2 -696.9,759.3" fill="#b0a99d" stroke="none" stroke-width="0.4"/><polygon points="-753.7,923.2 -741.6,930.2 -741.6,785.2 -753.7,778.2" fill="#8d887e" stroke="none" stroke-width="0.4"/><polygon points="-709.0,752.3 -696.9,759.3 -741.6,785.2 -753.7,778.2" fill="#f0e7d7" stroke="none" stroke-width="0.4"/>
<polygon points="1331.1,926.5 1310.3,938.5 1310.3,793.5 1331.1,781.5" fill="#b0a99d" stroke="none" stroke-width="0.4"/><polygon points="1258.3,908.5 1310.3,938.5 1310.3,793.5 1258.3,763.5" fill="#8d887e" stroke="none" stroke-width="0.4"/><polygon points="1279.1,751.5 1331.1,781.5 1310.3,793.5 1258.3,763.5" fill="#f0e7d7" stroke="none" stroke-width="0.4"/>
<polygon points="773.6,929.6 761.5,936.6 761.5,791.6 773.6,784.6" fill="#b0a99d" stroke="none" stroke-width="0.4"/><polygon points="714.9,909.7 761.5,936.6 761.5,791.6 714.9,764.7" fill="#8d887e" stroke="none" stroke-width="0.4"/><polygon points="727.0,757.7 773.6,784.6 761.5,791.6 714.9,764.7" fill="#f0e7d7" stroke="none" stroke-width="0.4"/>
<polygon points="1060.0,910.0 1004.6,942.0 1004.6,797.0 1060.0,765.0" fill="#b0a99d" stroke="none" stroke-width="0.4"/><polygon points="992.5,935.0 1004.6,942.0 1004.6,797.0 992.5,790.0" fill="#8d887e" stroke="none" stroke-width="0.4"/><polygon points="1047.9,758.0 1060.0,765.0 1004.6,797.0 992.5,790.0" fill="#f0e7d7" stroke="none" stroke-width="0.4"/>
<polygon points="-791.5,941.0 -812.3,953.0 -812.3,808.0 -791.5,796.0" fill="#b0a99d" stroke="none" stroke-width="0.4"/><polygon points="-864.7,922.7 -812.3,953.0 -812.3,808.0 -864.7,777.7" fill="#8d887e" stroke="none" stroke-width="0.4"/><polygon points="-843.9,765.7 -791.5,796.0 -812.3,808.0 -864.7,777.7" fill="#f0e7d7" stroke="none" stroke-width="0.4"/>
<polygon points="-741.6,930.2 -786.4,956.0 -786.4,811.0 -741.6,785.2" fill="#b0a99d" stroke="none" stroke-width="0.4"/><polygon points="-798.5,949.0 -786.4,956.0 -786.4,811.0 -798.5,804.0" fill="#8d887e" stroke="none" stroke-width="0.4"/><polygon points="-753.7,778.2 -741.6,785.2 -786.4,811.0 -798.5,804.0" fill="#f0e7d7" stroke="none" stroke-width="0.4"/>
<polygon points="820.1,956.5 808.0,963.5 808.0,818.5 820.1,811.5" fill="#b0a99d" stroke="none" stroke-width="0.4"/><polygon points="761.5,936.6 808.0,963.5 808.0,818.5 761.5,791.6" fill="#8d887e" stroke="none" stroke-width="0.4"/><polygon points="773.6,784.6 820.1,811.5 808.0,818.5 761.5,791.6" fill="#f0e7d7" stroke="none" stroke-width="0.4"/>
<polygon points="1383.0,956.5 1362.3,968.5 1362.3,823.5 1383.0,811.5" fill="#b0a99d" stroke="none" stroke-width="0.4"/><polygon points="1310.3,938.5 1362.3,968.5 1362.3,823.5 1310.3,793.5" fill="#8d887e" stroke="none" stroke-width="0.4"/><polygon points="1331.1,781.5 1383.0,811.5 1362.3,823.5 1310.3,793.5" fill="#f0e7d7" stroke="none" stroke-width="0.4"/>
<polygon points="-1065.2,795.0 -792.4,952.5 -792.4,804.5 -1065.2,647.0" fill="#bfe0f0aa" stroke="#7fa6bc" stroke-width="2"/><line x1="-975.2" y1="847.0" x2="-975.2" y2="699.0" stroke="#7fa6bc" stroke-width="1"/><line x1="-885.2" y1="898.9" x2="-885.2" y2="750.9" stroke="#7fa6bc" stroke-width="1"/>
<polygon points="1004.6,942.0 949.2,974.0 949.2,829.0 1004.6,797.0" fill="#b0a99d" stroke="none" stroke-width="0.4"/><polygon points="937.0,967.0 949.2,974.0 949.2,829.0 937.0,822.0" fill="#8d887e" stroke="none" stroke-width="0.4"/><polygon points="992.5,790.0 1004.6,797.0 949.2,829.0 937.0,822.0" fill="#f0e7d7" stroke="none" stroke-width="0.4"/>
<polygon points="517.0,971.5 504.9,978.5 504.9,833.5 517.0,826.5" fill="#b0a99d" stroke="none" stroke-width="0.4"/><polygon points="457.3,951.0 504.9,978.5 504.9,833.5 457.3,806.0" fill="#8d887e" stroke="none" stroke-width="0.4"/><polygon points="469.4,799.0 517.0,826.5 504.9,833.5 457.3,806.0" fill="#f0e7d7" stroke="none" stroke-width="0.4"/>
<polygon points="469.4,951.0 419.6,979.7 419.6,834.7 469.4,806.0" fill="#b0a99d" stroke="none" stroke-width="0.4"/><polygon points="407.5,972.7 419.6,979.7 419.6,834.7 407.5,827.7" fill="#8d887e" stroke="none" stroke-width="0.4"/><polygon points="457.3,799.0 469.4,806.0 419.6,834.7 407.5,827.7" fill="#f0e7d7" stroke="none" stroke-width="0.4"/>
<polygon points="-739.2,971.2 -759.9,983.2 -759.9,838.2 -739.2,826.2" fill="#b0a99d" stroke="none" stroke-width="0.4"/><polygon points="-812.3,953.0 -759.9,983.2 -759.9,838.2 -812.3,808.0" fill="#8d887e" stroke="none" stroke-width="0.4"/><polygon points="-791.5,796.0 -739.2,826.2 -759.9,838.2 -812.3,808.0" fill="#f0e7d7" stroke="none" stroke-width="0.4"/>
<polygon points="1435.0,986.5 1414.2,998.5 1414.2,853.5 1435.0,841.5" fill="#b0a99d" stroke="none" stroke-width="0.4"/><polygon points="1362.3,968.5 1414.2,998.5 1414.2,853.5 1362.3,823.5" fill="#8d887e" stroke="none" stroke-width="0.4"/><polygon points="1383.0,811.5 1435.0,841.5 1414.2,853.5 1362.3,823.5" fill="#f0e7d7" stroke="none" stroke-width="0.4"/>
<polygon points="1182.1,777.5 1407.3,907.5 1407.3,834.5 1182.1,704.5" fill="#bfe0f0aa" stroke="#7fa6bc" stroke-width="2"/><line x1="1256.4" y1="820.4" x2="1256.4" y2="747.4" stroke="#7fa6bc" stroke-width="1"/><line x1="1330.7" y1="863.3" x2="1330.7" y2="790.3" stroke="#7fa6bc" stroke-width="1"/>
<polygon points="949.2,974.0 893.7,1006.0 893.7,861.0 949.2,829.0" fill="#b0a99d" stroke="none" stroke-width="0.4"/><polygon points="881.6,999.0 893.7,1006.0 893.7,861.0 881.6,854.0" fill="#8d887e" stroke="none" stroke-width="0.4"/><polygon points="937.0,822.0 949.2,829.0 893.7,861.0 881.6,854.0" fill="#f0e7d7" stroke="none" stroke-width="0.4"/>
<polygon points="564.6,999.0 552.5,1006.0 552.5,861.0 564.6,854.0" fill="#b0a99d" stroke="none" stroke-width="0.4"/><polygon points="504.9,978.5 552.5,1006.0 552.5,861.0 504.9,833.5" fill="#8d887e" stroke="none" stroke-width="0.4"/><polygon points="517.0,826.5 564.6,854.0 552.5,861.0 504.9,833.5" fill="#f0e7d7" stroke="none" stroke-width="0.4"/>
<polygon points="419.6,979.7 369.8,1008.5 369.8,863.5 419.6,834.7" fill="#b0a99d" stroke="none" stroke-width="0.4"/><polygon points="357.7,1001.5 369.8,1008.5 369.8,863.5 357.7,856.5" fill="#8d887e" stroke="none" stroke-width="0.4"/><polygon points="407.5,827.7 419.6,834.7 369.8,863.5 357.7,856.5" fill="#f0e7d7" stroke="none" stroke-width="0.4"/>
<polygon points="-686.8,1001.5 -707.5,1013.5 -707.5,868.5 -686.8,856.5" fill="#b0a99d" stroke="none" stroke-width="0.4"/><polygon points="-759.9,983.2 -707.5,1013.5 -707.5,868.5 -759.9,838.2" fill="#8d887e" stroke="none" stroke-width="0.4"/><polygon points="-739.2,826.2 -686.8,856.5 -707.5,868.5 -759.9,838.2" fill="#f0e7d7" stroke="none" stroke-width="0.4"/>
<polygon points="1435.0,998.5 1383.9,1028.0 1383.9,883.0 1435.0,853.5" fill="#b0a99d" stroke="none" stroke-width="0.4"/><polygon points="1363.1,1016.0 1383.9,1028.0 1383.9,883.0 1363.1,871.0" fill="#8d887e" stroke="none" stroke-width="0.4"/><polygon points="1414.2,841.5 1435.0,853.5 1383.9,883.0 1363.1,871.0" fill="#f0e7d7" stroke="none" stroke-width="0.4"/>
<polygon points="612.3,1026.5 600.2,1033.5 600.2,888.5 612.3,881.5" fill="#b0a99d" stroke="none" stroke-width="0.4"/><polygon points="552.5,1006.0 600.2,1033.5 600.2,888.5 552.5,861.0" fill="#8d887e" stroke="none" stroke-width="0.4"/><polygon points="564.6,854.0 612.3,881.5 600.2,888.5 552.5,861.0" fill="#f0e7d7" stroke="none" stroke-width="0.4"/>
<polygon points="369.8,1008.5 320.0,1037.2 320.0,892.2 369.8,863.5" fill="#b0a99d" stroke="none" stroke-width="0.4"/><polygon points="307.9,1030.2 320.0,1037.2 320.0,892.2 307.9,885.2" fill="#8d887e" stroke="none" stroke-width="0.4"/><polygon points="357.7,856.5 369.8,863.5 320.0,892.2 307.9,885.2" fill="#f0e7d7" stroke="none" stroke-width="0.4"/>
<polygon points="-634.4,1031.7 -655.1,1043.7 -655.1,898.7 -634.4,886.7" fill="#b0a99d" stroke="none" stroke-width="0.4"/><polygon points="-707.5,1013.5 -655.1,1043.7 -655.1,898.7 -707.5,868.5" fill="#8d887e" stroke="none" stroke-width="0.4"/><polygon points="-686.8,856.5 -634.4,886.7 -655.1,898.7 -707.5,868.5" fill="#f0e7d7" stroke="none" stroke-width="0.4"/>
<polygon points="1383.9,1028.0 1332.7,1057.5 1332.7,912.5 1383.9,883.0" fill="#b0a99d" stroke="none" stroke-width="0.4"/><polygon points="1311.9,1045.5 1332.7,1057.5 1332.7,912.5 1311.9,900.5" fill="#8d887e" stroke="none" stroke-width="0.4"/><polygon points="1363.1,871.0 1383.9,883.0 1332.7,912.5 1311.9,900.5" fill="#f0e7d7" stroke="none" stroke-width="0.4"/>
<polygon points="659.9,1054.0 647.8,1061.0 647.8,916.0 659.9,909.0" fill="#b0a99d" stroke="none" stroke-width="0.4"/><polygon points="600.2,1033.5 647.8,1061.0 647.8,916.0 600.2,888.5" fill="#8d887e" stroke="none" stroke-width="0.4"/><polygon points="612.3,881.5 659.9,909.0 647.8,916.0 600.2,888.5" fill="#f0e7d7" stroke="none" stroke-width="0.4"/>
<polygon points="320.0,1037.2 270.2,1066.0 270.2,921.0 320.0,892.2" fill="#b0a99d" stroke="none" stroke-width="0.4"/><polygon points="258.1,1059.0 270.2,1066.0 270.2,921.0 258.1,914.0" fill="#8d887e" stroke="none" stroke-width="0.4"/><polygon points="307.9,885.2 320.0,892.2 270.2,921.0 258.1,914.0" fill="#f0e7d7" stroke="none" stroke-width="0.4"/>
<polygon points="-582.0,1062.0 -602.8,1074.0 -602.8,929.0 -582.0,917.0" fill="#b0a99d" stroke="none" stroke-width="0.4"/><polygon points="-655.1,1043.7 -602.8,1074.0 -602.8,929.0 -655.1,898.7" fill="#8d887e" stroke="none" stroke-width="0.4"/><polygon points="-634.4,886.7 -582.0,917.0 -602.8,929.0 -655.1,898.7" fill="#f0e7d7" stroke="none" stroke-width="0.4"/>
<polygon points="824.5,1046.0 785.5,1068.5 785.5,923.5 824.5,901.0" fill="#b0a99d" stroke="none" stroke-width="0.4"/><polygon points="773.4,1061.5 785.5,1068.5 785.5,923.5 773.4,916.5" fill="#8d887e" stroke="none" stroke-width="0.4"/><polygon points="812.3,894.0 824.5,901.0 785.5,923.5 773.4,916.5" fill="#f0e7d7" stroke="none" stroke-width="0.4"/>
<polygon points="876.4,1069.0 864.3,1076.0 864.3,931.0 876.4,924.0" fill="#b0a99d" stroke="none" stroke-width="0.4"/><polygon points="812.3,1046.0 864.3,1076.0 864.3,931.0 812.3,901.0" fill="#8d887e" stroke="none" stroke-width="0.4"/><polygon points="824.5,894.0 876.4,924.0 864.3,931.0 812.3,901.0" fill="#f0e7d7" stroke="none" stroke-width="0.4"/>
<polygon points="1332.7,1057.5 1281.6,1087.1 1281.6,942.1 1332.7,912.5" fill="#b0a99d" stroke="none" stroke-width="0.4"/><polygon points="1260.8,1075.1 1281.6,1087.1 1281.6,942.1 1260.8,930.1" fill="#8d887e" stroke="none" stroke-width="0.4"/><polygon points="1311.9,900.5 1332.7,912.5 1281.6,942.1 1260.8,930.1" fill="#f0e7d7" stroke="none" stroke-width="0.4"/>
<polygon points="785.5,1068.5 746.5,1091.0 746.5,946.0 785.5,923.5" fill="#b0a99d" stroke="none" stroke-width="0.4"/><polygon points="734.4,1084.0 746.5,1091.0 746.5,946.0 734.4,939.0" fill="#8d887e" stroke="none" stroke-width="0.4"/><polygon points="773.4,916.5 785.5,923.5 746.5,946.0 734.4,939.0" fill="#f0e7d7" stroke="none" stroke-width="0.4"/>
<polygon points="270.2,1066.0 220.4,1094.7 220.4,949.7 270.2,921.0" fill="#b0a99d" stroke="none" stroke-width="0.4"/><polygon points="208.3,1087.7 220.4,1094.7 220.4,949.7 208.3,942.7" fill="#8d887e" stroke="none" stroke-width="0.4"/><polygon points="258.1,914.0 270.2,921.0 220.4,949.7 208.3,942.7" fill="#f0e7d7" stroke="none" stroke-width="0.4"/>
<polygon points="659.9,1061.0 590.6,1101.0 590.6,956.0 659.9,916.0" fill="#b0a99d" stroke="none" stroke-width="0.4"/><polygon points="578.5,1094.0 590.6,1101.0 590.6,956.0 578.5,949.0" fill="#8d887e" stroke="none" stroke-width="0.4"/><polygon points="647.8,909.0 659.9,916.0 590.6,956.0 578.5,949.0" fill="#f0e7d7" stroke="none" stroke-width="0.4"/>
<polygon points="-529.6,1092.2 -550.4,1104.2 -550.4,959.2 -529.6,947.2" fill="#b0a99d" stroke="none" stroke-width="0.4"/><polygon points="-602.8,1074.0 -550.4,1104.2 -550.4,959.2 -602.8,929.0" fill="#8d887e" stroke="none" stroke-width="0.4"/><polygon points="-582.0,917.0 -529.6,947.2 -550.4,959.2 -602.8,929.0" fill="#f0e7d7" stroke="none" stroke-width="0.4"/>
<polygon points="928.4,1099.0 916.3,1106.0 916.3,961.0 928.4,954.0" fill="#b0a99d" stroke="none" stroke-width="0.4"/><polygon points="864.3,1076.0 916.3,1106.0 916.3,961.0 864.3,931.0" fill="#8d887e" stroke="none" stroke-width="0.4"/><polygon points="876.4,924.0 928.4,954.0 916.3,961.0 864.3,931.0" fill="#f0e7d7" stroke="none" stroke-width="0.4"/>
<polygon points="1281.6,1087.1 1230.5,1116.6 1230.5,971.6 1281.6,942.1" fill="#b0a99d" stroke="none" stroke-width="0.4"/><polygon points="1209.7,1104.6 1230.5,1116.6 1230.5,971.6 1209.7,959.6" fill="#8d887e" stroke="none" stroke-width="0.4"/><polygon points="1260.8,930.1 1281.6,942.1 1230.5,971.6 1209.7,959.6" fill="#f0e7d7" stroke="none" stroke-width="0.4"/>
<polygon points="220.4,1094.7 170.6,1123.5 170.6,978.5 220.4,949.7" fill="#b0a99d" stroke="none" stroke-width="0.4"/><polygon points="158.5,1116.5 170.6,1123.5 170.6,978.5 158.5,971.5" fill="#8d887e" stroke="none" stroke-width="0.4"/><polygon points="208.3,942.7 220.4,949.7 170.6,978.5 158.5,971.5" fill="#f0e7d7" stroke="none" stroke-width="0.4"/>
<polygon points="-477.2,1122.5 -498.0,1134.5 -498.0,989.5 -477.2,977.5" fill="#b0a99d" stroke="none" stroke-width="0.4"/><polygon points="-550.4,1104.2 -498.0,1134.5 -498.0,989.5 -550.4,959.2" fill="#8d887e" stroke="none" stroke-width="0.4"/><polygon points="-529.6,947.2 -477.2,977.5 -498.0,989.5 -550.4,959.2" fill="#f0e7d7" stroke="none" stroke-width="0.4"/>
<polygon points="980.3,1129.0 968.2,1136.0 968.2,991.0 980.3,984.0" fill="#b0a99d" stroke="none" stroke-width="0.4"/><polygon points="916.3,1106.0 968.2,1136.0 968.2,991.0 916.3,961.0" fill="#8d887e" stroke="none" stroke-width="0.4"/><polygon points="928.4,954.0 980.3,984.0 968.2,991.0 916.3,961.0" fill="#f0e7d7" stroke="none" stroke-width="0.4"/>
<polygon points="1230.5,1116.6 1179.3,1146.1 1179.3,1001.1 1230.5,971.6" fill="#b0a99d" stroke="none" stroke-width="0.4"/><polygon points="1158.5,1134.1 1179.3,1146.1 1179.3,1001.1 1158.5,989.1" fill="#8d887e" stroke="none" stroke-width="0.4"/><polygon points="1209.7,959.6 1230.5,971.6 1179.3,1001.1 1158.5,989.1" fill="#f0e7d7" stroke="none" stroke-width="0.4"/>
<polygon points="221.5,1140.9 209.4,1147.9 209.4,1002.9 221.5,995.9" fill="#b0a99d" stroke="none" stroke-width="0.4"/><polygon points="162.8,1121.0 209.4,1147.9 209.4,1002.9 162.8,976.0" fill="#8d887e" stroke="none" stroke-width="0.4"/><polygon points="174.9,969.0 221.5,995.9 209.4,1002.9 162.8,976.0" fill="#f0e7d7" stroke="none" stroke-width="0.4"/>
<polygon points="170.6,1123.5 120.8,1152.2 120.8,1007.2 170.6,978.5" fill="#b0a99d" stroke="none" stroke-width="0.4"/><polygon points="108.7,1145.2 120.8,1152.2 120.8,1007.2 108.7,1000.2" fill="#8d887e" stroke="none" stroke-width="0.4"/><polygon points="158.5,971.5 170.6,978.5 120.8,1007.2 108.7,1000.2" fill="#f0e7d7" stroke="none" stroke-width="0.4"/>
<polygon points="677.2,1131.0 625.3,1161.0 625.3,1016.0 677.2,986.0" fill="#b0a99d" stroke="none" stroke-width="0.4"/><polygon points="613.1,1154.0 625.3,1161.0 625.3,1016.0 613.1,1009.0" fill="#8d887e" stroke="none" stroke-width="0.4"/><polygon points="665.1,979.0 677.2,986.0 625.3,1016.0 613.1,1009.0" fill="#f0e7d7" stroke="none" stroke-width="0.4"/>
<polygon points="-424.8,1152.7 -445.6,1164.7 -445.6,1019.7 -424.8,1007.7" fill="#b0a99d" stroke="none" stroke-width="0.4"/><polygon points="-498.0,1134.5 -445.6,1164.7 -445.6,1019.7 -498.0,989.5" fill="#8d887e" stroke="none" stroke-width="0.4"/><polygon points="-477.2,977.5 -424.8,1007.7 -445.6,1019.7 -498.0,989.5" fill="#f0e7d7" stroke="none" stroke-width="0.4"/>
<polygon points="1032.3,1159.0 1020.2,1166.0 1020.2,1021.0 1032.3,1014.0" fill="#b0a99d" stroke="none" stroke-width="0.4"/><polygon points="968.2,1136.0 1020.2,1166.0 1020.2,1021.0 968.2,991.0" fill="#8d887e" stroke="none" stroke-width="0.4"/><polygon points="980.3,984.0 1032.3,1014.0 1020.2,1021.0 968.2,991.0" fill="#f0e7d7" stroke="none" stroke-width="0.4"/>
<polygon points="711.9,1164.0 699.7,1171.0 699.7,1026.0 711.9,1019.0" fill="#b0a99d" stroke="none" stroke-width="0.4"/><polygon points="647.8,1141.0 699.7,1171.0 699.7,1026.0 647.8,996.0" fill="#8d887e" stroke="none" stroke-width="0.4"/><polygon points="659.9,989.0 711.9,1019.0 699.7,1026.0 647.8,996.0" fill="#f0e7d7" stroke="none" stroke-width="0.4"/>
<polygon points="1179.3,1146.1 1128.2,1175.6 1128.2,1030.6 1179.3,1001.1" fill="#b0a99d" stroke="none" stroke-width="0.4"/><polygon points="1107.4,1163.6 1128.2,1175.6 1128.2,1030.6 1107.4,1018.6" fill="#8d887e" stroke="none" stroke-width="0.4"/><polygon points="1158.5,989.1 1179.3,1001.1 1128.2,1030.6 1107.4,1018.6" fill="#f0e7d7" stroke="none" stroke-width="0.4"/>
<polygon points="268.0,1167.7 255.9,1174.7 255.9,1029.7 268.0,1022.7" fill="#b0a99d" stroke="none" stroke-width="0.4"/><polygon points="209.4,1147.9 255.9,1174.7 255.9,1029.7 209.4,1002.9" fill="#8d887e" stroke="none" stroke-width="0.4"/><polygon points="221.5,995.9 268.0,1022.7 255.9,1029.7 209.4,1002.9" fill="#f0e7d7" stroke="none" stroke-width="0.4"/>
<polygon points="120.8,1152.2 71.0,1181.0 71.0,1036.0 120.8,1007.2" fill="#b0a99d" stroke="none" stroke-width="0.4"/><polygon points="58.9,1174.0 71.0,1181.0 71.0,1036.0 58.9,1029.0" fill="#8d887e" stroke="none" stroke-width="0.4"/><polygon points="108.7,1000.2 120.8,1007.2 71.0,1036.0 58.9,1029.0" fill="#f0e7d7" stroke="none" stroke-width="0.4"/>
<polygon points="-372.4,1183.0 -393.2,1195.0 -393.2,1050.0 -372.4,1038.0" fill="#b0a99d" stroke="none" stroke-width="0.4"/><polygon points="-445.6,1164.7 -393.2,1195.0 -393.2,1050.0 -445.6,1019.7" fill="#8d887e" stroke="none" stroke-width="0.4"/><polygon points="-424.8,1007.7 -372.4,1038.0 -393.2,1050.0 -445.6,1019.7" fill="#f0e7d7" stroke="none" stroke-width="0.4"/>
<polygon points="1084.3,1189.0 1072.1,1196.0 1072.1,1051.0 1084.3,1044.0" fill="#b0a99d" stroke="none" stroke-width="0.4"/><polygon points="1020.2,1166.0 1072.1,1196.0 1072.1,1051.0 1020.2,1021.0" fill="#8d887e" stroke="none" stroke-width="0.4"/><polygon points="1032.3,1014.0 1084.3,1044.0 1072.1,1051.0 1020.2,1021.0" fill="#f0e7d7" stroke="none" stroke-width="0.4"/>
<polygon points="763.8,1194.0 751.7,1201.0 751.7,1056.0 763.8,1049.0" fill="#b0a99d" stroke="none" stroke-width="0.4"/><polygon points="699.7,1171.0 751.7,1201.0 751.7,1056.0 699.7,1026.0" fill="#8d887e" stroke="none" stroke-width="0.4"/><polygon points="711.9,1019.0 763.8,1049.0 751.7,1056.0 699.7,1026.0" fill="#f0e7d7" stroke="none" stroke-width="0.4"/>
<polygon points="1128.2,1175.6 1077.0,1205.2 1077.0,1060.2 1128.2,1030.6" fill="#b0a99d" stroke="none" stroke-width="0.4"/><polygon points="1056.3,1193.2 1077.0,1205.2 1077.0,1060.2 1056.3,1048.2" fill="#8d887e" stroke="none" stroke-width="0.4"/><polygon points="1107.4,1018.6 1128.2,1030.6 1077.0,1060.2 1056.3,1048.2" fill="#f0e7d7" stroke="none" stroke-width="0.4"/>
<polygon points="314.6,1194.6 302.5,1201.6 302.5,1056.6 314.6,1049.6" fill="#b0a99d" stroke="none" stroke-width="0.4"/><polygon points="255.9,1174.7 302.5,1201.6 302.5,1056.6 255.9,1029.7" fill="#8d887e" stroke="none" stroke-width="0.4"/><polygon points="268.0,1022.7 314.6,1049.6 302.5,1056.6 255.9,1029.7" fill="#f0e7d7" stroke="none" stroke-width="0.4"/>
<polygon points="71.0,1181.0 21.2,1209.7 21.2,1064.7 71.0,1036.0" fill="#b0a99d" stroke="none" stroke-width="0.4"/><polygon points="9.1,1202.7 21.2,1209.7 21.2,1064.7 9.1,1057.7" fill="#8d887e" stroke="none" stroke-width="0.4"/><polygon points="58.9,1029.0 71.0,1036.0 21.2,1064.7 9.1,1057.7" fill="#f0e7d7" stroke="none" stroke-width="0.4"/>
<polygon points="-320.0,1213.2 -340.8,1225.2 -340.8,1080.2 -320.0,1068.2" fill="#b0a99d" stroke="none" stroke-width="0.4"/><polygon points="-393.2,1195.0 -340.8,1225.2 -340.8,1080.2 -393.2,1050.0" fill="#8d887e" stroke="none" stroke-width="0.4"/><polygon points="-372.4,1038.0 -320.0,1068.2 -340.8,1080.2 -393.2,1050.0" fill="#f0e7d7" stroke="none" stroke-width="0.4"/>
<polygon points="564.6,1196.0 499.7,1233.5 499.7,1088.5 564.6,1051.0" fill="#b0a99d" stroke="none" stroke-width="0.4"/><polygon points="487.6,1226.5 499.7,1233.5 499.7,1088.5 487.6,1081.5" fill="#8d887e" stroke="none" stroke-width="0.4"/><polygon points="552.5,1044.0 564.6,1051.0 499.7,1088.5 487.6,1081.5" fill="#f0e7d7" stroke="none" stroke-width="0.4"/>
<polygon points="361.1,1221.5 349.0,1228.5 349.0,1083.5 361.1,1076.5" fill="#b0a99d" stroke="none" stroke-width="0.4"/><polygon points="302.5,1201.6 349.0,1228.5 349.0,1083.5 302.5,1056.6" fill="#8d887e" stroke="none" stroke-width="0.4"/><polygon points="314.6,1049.6 361.1,1076.5 349.0,1083.5 302.5,1056.6" fill="#f0e7d7" stroke="none" stroke-width="0.4"/>
<polygon points="815.8,1224.0 803.7,1231.0 803.7,1086.0 815.8,1079.0" fill="#b0a99d" stroke="none" stroke-width="0.4"/><polygon points="751.7,1201.0 803.7,1231.0 803.7,1086.0 751.7,1056.0" fill="#8d887e" stroke="none" stroke-width="0.4"/><polygon points="763.8,1049.0 815.8,1079.0 803.7,1086.0 751.7,1056.0" fill="#f0e7d7" stroke="none" stroke-width="0.4"/>
<polygon points="1077.0,1205.2 1025.9,1234.7 1025.9,1089.7 1077.0,1060.2" fill="#b0a99d" stroke="none" stroke-width="0.4"/><polygon points="1005.1,1222.7 1025.9,1234.7 1025.9,1089.7 1005.1,1077.7" fill="#8d887e" stroke="none" stroke-width="0.4"/><polygon points="1056.3,1048.2 1077.0,1060.2 1025.9,1089.7 1005.1,1077.7" fill="#f0e7d7" stroke="none" stroke-width="0.4"/>
<polygon points="21.2,1209.7 -28.6,1238.5 -28.6,1093.5 21.2,1064.7" fill="#b0a99d" stroke="none" stroke-width="0.4"/><polygon points="-40.7,1231.5 -28.6,1238.5 -28.6,1093.5 -40.7,1086.5" fill="#8d887e" stroke="none" stroke-width="0.4"/><polygon points="9.1,1057.7 21.2,1064.7 -28.6,1093.5 -40.7,1086.5" fill="#f0e7d7" stroke="none" stroke-width="0.4"/>
<polygon points="-267.6,1243.5 -288.4,1255.5 -288.4,1110.5 -267.6,1098.5" fill="#b0a99d" stroke="none" stroke-width="0.4"/><polygon points="-340.8,1225.2 -288.4,1255.5 -288.4,1110.5 -340.8,1080.2" fill="#8d887e" stroke="none" stroke-width="0.4"/><polygon points="-320.0,1068.2 -267.6,1098.5 -288.4,1110.5 -340.8,1080.2" fill="#f0e7d7" stroke="none" stroke-width="0.4"/>
<polygon points="867.8,1254.0 855.6,1261.0 855.6,1116.0 867.8,1109.0" fill="#b0a99d" stroke="none" stroke-width="0.4"/><polygon points="803.7,1231.0 855.6,1261.0 855.6,1116.0 803.7,1086.0" fill="#8d887e" stroke="none" stroke-width="0.4"/><polygon points="815.8,1079.0 867.8,1109.0 855.6,1116.0 803.7,1086.0" fill="#f0e7d7" stroke="none" stroke-width="0.4"/>
<polygon points="1025.9,1234.7 974.8,1264.2 974.8,1119.2 1025.9,1089.7" fill="#b0a99d" stroke="none" stroke-width="0.4"/><polygon points="954.0,1252.2 974.8,1264.2 974.8,1119.2 954.0,1107.2" fill="#8d887e" stroke="none" stroke-width="0.4"/><polygon points="1005.1,1077.7 1025.9,1089.7 974.8,1119.2 954.0,1107.2" fill="#f0e7d7" stroke="none" stroke-width="0.4"/>
<polygon points="-28.6,1238.5 -73.3,1264.3 -73.3,1119.3 -28.6,1093.5" fill="#b0a99d" stroke="none" stroke-width="0.4"/><polygon points="-85.4,1257.3 -73.3,1264.3 -73.3,1119.3 -85.4,1112.3" fill="#8d887e" stroke="none" stroke-width="0.4"/><polygon points="-40.7,1086.5 -28.6,1093.5 -73.3,1119.3 -85.4,1112.3" fill="#f0e7d7" stroke="none" stroke-width="0.4"/>
<polygon points="499.7,1233.5 434.7,1271.0 434.7,1126.0 499.7,1088.5" fill="#b0a99d" stroke="none" stroke-width="0.4"/><polygon points="422.6,1264.0 434.7,1271.0 434.7,1126.0 422.6,1119.0" fill="#8d887e" stroke="none" stroke-width="0.4"/><polygon points="487.6,1081.5 499.7,1088.5 434.7,1126.0 422.6,1119.0" fill="#f0e7d7" stroke="none" stroke-width="0.4"/>
<polygon points="-215.2,1273.7 -236.0,1285.7 -236.0,1140.7 -215.2,1128.7" fill="#b0a99d" stroke="none" stroke-width="0.4"/><polygon points="-288.4,1255.5 -236.0,1285.7 -236.0,1140.7 -288.4,1110.5" fill="#8d887e" stroke="none" stroke-width="0.4"/><polygon points="-267.6,1098.5 -215.2,1128.7 -236.0,1140.7 -288.4,1110.5" fill="#f0e7d7" stroke="none" stroke-width="0.4"/>
<polygon points="1047.9,1095.0 935.3,1160.0 935.3,1122.0 1047.9,1057.0" fill="#bfe0f0aa" stroke="#7fa6bc" stroke-width="2"/><line x1="1010.7" y1="1116.4" x2="1010.7" y2="1078.4" stroke="#7fa6bc" stroke-width="1"/><line x1="973.6" y1="1137.9" x2="973.6" y2="1099.9" stroke="#7fa6bc" stroke-width="1"/>
<polygon points="919.7,1284.0 907.6,1291.0 907.6,1146.0 919.7,1139.0" fill="#b0a99d" stroke="none" stroke-width="0.4"/><polygon points="855.6,1261.0 907.6,1291.0 907.6,1146.0 855.6,1116.0" fill="#8d887e" stroke="none" stroke-width="0.4"/><polygon points="867.8,1109.0 919.7,1139.0 907.6,1146.0 855.6,1116.0" fill="#f0e7d7" stroke="none" stroke-width="0.4"/>
<polygon points="974.8,1264.2 923.6,1293.7 923.6,1148.7 974.8,1119.2" fill="#b0a99d" stroke="none" stroke-width="0.4"/><polygon points="902.9,1281.7 923.6,1293.7 923.6,1148.7 902.9,1136.7" fill="#8d887e" stroke="none" stroke-width="0.4"/><polygon points="954.0,1107.2 974.8,1119.2 923.6,1148.7 902.9,1136.7" fill="#f0e7d7" stroke="none" stroke-width="0.4"/>
<polygon points="-73.3,1264.3 -118.1,1290.2 -118.1,1145.2 -73.3,1119.3" fill="#b0a99d" stroke="none" stroke-width="0.4"/><polygon points="-130.2,1283.2 -118.1,1290.2 -118.1,1145.2 -130.2,1138.2" fill="#8d887e" stroke="none" stroke-width="0.4"/><polygon points="-85.4,1112.3 -73.3,1119.3 -118.1,1145.2 -130.2,1138.2" fill="#f0e7d7" stroke="none" stroke-width="0.4"/>
<polygon points="486.7,1294.0 474.6,1301.0 474.6,1156.0 486.7,1149.0" fill="#b0a99d" stroke="none" stroke-width="0.4"/><polygon points="422.6,1271.0 474.6,1301.0 474.6,1156.0 422.6,1126.0" fill="#8d887e" stroke="none" stroke-width="0.4"/><polygon points="434.7,1119.0 486.7,1149.0 474.6,1156.0 422.6,1126.0" fill="#f0e7d7" stroke="none" stroke-width="0.4"/>
<polygon points="-162.8,1304.0 -183.6,1316.0 -183.6,1171.0 -162.8,1159.0" fill="#b0a99d" stroke="none" stroke-width="0.4"/><polygon points="-236.0,1285.7 -183.6,1316.0 -183.6,1171.0 -236.0,1140.7" fill="#8d887e" stroke="none" stroke-width="0.4"/><polygon points="-215.2,1128.7 -162.8,1159.0 -183.6,1171.0 -236.0,1140.7" fill="#f0e7d7" stroke="none" stroke-width="0.4"/>
<polygon points="-118.1,1290.2 -162.8,1316.0 -162.8,1171.0 -118.1,1145.2" fill="#b0a99d" stroke="none" stroke-width="0.4"/><polygon points="-174.9,1309.0 -162.8,1316.0 -162.8,1171.0 -174.9,1164.0" fill="#8d887e" stroke="none" stroke-width="0.4"/><polygon points="-130.2,1138.2 -118.1,1145.2 -162.8,1171.0 -174.9,1164.0" fill="#f0e7d7" stroke="none" stroke-width="0.4"/>
<polygon points="923.6,1293.7 872.5,1323.3 872.5,1178.3 923.6,1148.7" fill="#b0a99d" stroke="none" stroke-width="0.4"/><polygon points="851.7,1311.3 872.5,1323.3 872.5,1178.3 851.7,1166.3" fill="#8d887e" stroke="none" stroke-width="0.4"/><polygon points="902.9,1136.7 923.6,1148.7 872.5,1178.3 851.7,1166.3" fill="#f0e7d7" stroke="none" stroke-width="0.4"/>
<polygon points="538.7,1324.0 526.5,1331.0 526.5,1186.0 538.7,1179.0" fill="#b0a99d" stroke="none" stroke-width="0.4"/><polygon points="474.6,1301.0 526.5,1331.0 526.5,1186.0 474.6,1156.0" fill="#8d887e" stroke="none" stroke-width="0.4"/><polygon points="486.7,1149.0 538.7,1179.0 526.5,1186.0 474.6,1156.0" fill="#f0e7d7" stroke="none" stroke-width="0.4"/>
<polygon points="-792.4,952.5 -168.9,1312.5 -168.9,1164.5 -792.4,804.5" fill="#bfe0f0aa" stroke="#7fa6bc" stroke-width="2"/><line x1="-586.6" y1="1071.3" x2="-586.6" y2="923.3" stroke="#7fa6bc" stroke-width="1"/><line x1="-380.9" y1="1190.1" x2="-380.9" y2="1042.1" stroke="#7fa6bc" stroke-width="1"/>
<polygon points="-110.4,1334.2 -131.2,1346.2 -131.2,1201.2 -110.4,1189.2" fill="#b0a99d" stroke="none" stroke-width="0.4"/><polygon points="-183.6,1316.0 -131.2,1346.2 -131.2,1201.2 -183.6,1171.0" fill="#8d887e" stroke="none" stroke-width="0.4"/><polygon points="-162.8,1159.0 -110.4,1189.2 -131.2,1201.2 -183.6,1171.0" fill="#f0e7d7" stroke="none" stroke-width="0.4"/>
<polygon points="872.5,1323.3 821.4,1352.8 821.4,1207.8 872.5,1178.3" fill="#b0a99d" stroke="none" stroke-width="0.4"/><polygon points="800.6,1340.8 821.4,1352.8 821.4,1207.8 800.6,1195.8" fill="#8d887e" stroke="none" stroke-width="0.4"/><polygon points="851.7,1166.3 872.5,1178.3 821.4,1207.8 800.6,1195.8" fill="#f0e7d7" stroke="none" stroke-width="0.4"/>
<polygon points="590.6,1354.0 578.5,1361.0 578.5,1216.0 590.6,1209.0" fill="#b0a99d" stroke="none" stroke-width="0.4"/><polygon points="526.5,1331.0 578.5,1361.0 578.5,1216.0 526.5,1186.0" fill="#8d887e" stroke="none" stroke-width="0.4"/><polygon points="538.7,1179.0 590.6,1209.0 578.5,1216.0 526.5,1186.0" fill="#f0e7d7" stroke="none" stroke-width="0.4"/>
<polygon points="-58.0,1364.5 -78.8,1376.5 -78.8,1231.5 -58.0,1219.5" fill="#b0a99d" stroke="none" stroke-width="0.4"/><polygon points="-131.2,1346.2 -78.8,1376.5 -78.8,1231.5 -131.2,1201.2" fill="#8d887e" stroke="none" stroke-width="0.4"/><polygon points="-110.4,1189.2 -58.0,1219.5 -78.8,1231.5 -131.2,1201.2" fill="#f0e7d7" stroke="none" stroke-width="0.4"/>
<polygon points="821.4,1352.8 770.2,1382.3 770.2,1237.3 821.4,1207.8" fill="#b0a99d" stroke="none" stroke-width="0.4"/><polygon points="749.4,1370.3 770.2,1382.3 770.2,1237.3 749.4,1225.3" fill="#8d887e" stroke="none" stroke-width="0.4"/><polygon points="800.6,1195.8 821.4,1207.8 770.2,1237.3 749.4,1225.3" fill="#f0e7d7" stroke="none" stroke-width="0.4"/>
<polygon points="642.6,1384.0 630.5,1391.0 630.5,1246.0 642.6,1239.0" fill="#b0a99d" stroke="none" stroke-width="0.4"/><polygon points="578.5,1361.0 630.5,1391.0 630.5,1246.0 578.5,1216.0" fill="#8d887e" stroke="none" stroke-width="0.4"/><polygon points="590.6,1209.0 642.6,1239.0 630.5,1246.0 578.5,1216.0" fill="#f0e7d7" stroke="none" stroke-width="0.4"/>
<polygon points="-5.6,1394.7 -26.4,1406.7 -26.4,1261.7 -5.6,1249.7" fill="#b0a99d" stroke="none" stroke-width="0.4"/><polygon points="-78.8,1376.5 -26.4,1406.7 -26.4,1261.7 -78.8,1231.5" fill="#8d887e" stroke="none" stroke-width="0.4"/><polygon points="-58.0,1219.5 -5.6,1249.7 -26.4,1261.7 -78.8,1231.5" fill="#f0e7d7" stroke="none" stroke-width="0.4"/>
<polygon points="770.2,1382.3 719.1,1411.8 719.1,1266.8 770.2,1237.3" fill="#b0a99d" stroke="none" stroke-width="0.4"/><polygon points="698.3,1399.8 719.1,1411.8 719.1,1266.8 698.3,1254.8" fill="#8d887e" stroke="none" stroke-width="0.4"/><polygon points="749.4,1225.3 770.2,1237.3 719.1,1266.8 698.3,1254.8" fill="#f0e7d7" stroke="none" stroke-width="0.4"/>
<polygon points="694.6,1414.0 682.4,1421.0 682.4,1276.0 694.6,1269.0" fill="#b0a99d" stroke="none" stroke-width="0.4"/><polygon points="630.5,1391.0 682.4,1421.0 682.4,1276.0 630.5,1246.0" fill="#8d887e" stroke="none" stroke-width="0.4"/><polygon points="642.6,1239.0 694.6,1269.0 682.4,1276.0 630.5,1246.0" fill="#f0e7d7" stroke="none" stroke-width="0.4"/>
<polygon points="857.4,1205.0 692.8,1300.0 692.8,1262.0 857.4,1167.0" fill="#bfe0f0aa" stroke="#7fa6bc" stroke-width="2"/><line x1="803.1" y1="1236.3" x2="803.1" y2="1198.3" stroke="#7fa6bc" stroke-width="1"/><line x1="748.8" y1="1267.7" x2="748.8" y2="1229.7" stroke="#7fa6bc" stroke-width="1"/>
<polygon points="46.8,1425.0 26.0,1437.0 26.0,1292.0 46.8,1280.0" fill="#b0a99d" stroke="none" stroke-width="0.4"/><polygon points="-26.4,1406.7 26.0,1437.0 26.0,1292.0 -26.4,1261.7" fill="#8d887e" stroke="none" stroke-width="0.4"/><polygon points="-5.6,1249.7 46.8,1280.0 26.0,1292.0 -26.4,1261.7" fill="#f0e7d7" stroke="none" stroke-width="0.4"/>
<polygon points="719.1,1411.8 668.0,1441.4 668.0,1296.4 719.1,1266.8" fill="#b0a99d" stroke="none" stroke-width="0.4"/><polygon points="647.2,1429.4 668.0,1441.4 668.0,1296.4 647.2,1284.4" fill="#8d887e" stroke="none" stroke-width="0.4"/><polygon points="698.3,1254.8 719.1,1266.8 668.0,1296.4 647.2,1284.4" fill="#f0e7d7" stroke="none" stroke-width="0.4"/>
<polygon points="99.2,1455.2 78.4,1467.2 78.4,1322.2 99.2,1310.2" fill="#b0a99d" stroke="none" stroke-width="0.4"/><polygon points="26.0,1437.0 78.4,1467.2 78.4,1322.2 26.0,1292.0" fill="#8d887e" stroke="none" stroke-width="0.4"/><polygon points="46.8,1280.0 99.2,1310.2 78.4,1322.2 26.0,1292.0" fill="#f0e7d7" stroke="none" stroke-width="0.4"/>
<polygon points="668.0,1441.4 616.8,1470.9 616.8,1325.9 668.0,1296.4" fill="#b0a99d" stroke="none" stroke-width="0.4"/><polygon points="596.0,1458.9 616.8,1470.9 616.8,1325.9 596.0,1313.9" fill="#8d887e" stroke="none" stroke-width="0.4"/><polygon points="647.2,1284.4 668.0,1296.4 616.8,1325.9 596.0,1313.9" fill="#f0e7d7" stroke="none" stroke-width="0.4"/>
<polygon points="151.6,1485.5 130.8,1497.5 130.8,1352.5 151.6,1340.5" fill="#b0a99d" stroke="none" stroke-width="0.4"/><polygon points="78.4,1467.2 130.8,1497.5 130.8,1352.5 78.4,1322.2" fill="#8d887e" stroke="none" stroke-width="0.4"/><polygon points="99.2,1310.2 151.6,1340.5 130.8,1352.5 78.4,1322.2" fill="#f0e7d7" stroke="none" stroke-width="0.4"/>
<polygon points="616.8,1470.9 565.7,1500.4 565.7,1355.4 616.8,1325.9" fill="#b0a99d" stroke="none" stroke-width="0.4"/><polygon points="544.9,1488.4 565.7,1500.4 565.7,1355.4 544.9,1343.4" fill="#8d887e" stroke="none" stroke-width="0.4"/><polygon points="596.0,1313.9 616.8,1325.9 565.7,1355.4 544.9,1343.4" fill="#f0e7d7" stroke="none" stroke-width="0.4"/>
<polygon points="203.9,1515.7 183.2,1527.7 183.2,1382.7 203.9,1370.7" fill="#b0a99d" stroke="none" stroke-width="0.4"/><polygon points="130.8,1497.5 183.2,1527.7 183.2,1382.7 130.8,1352.5" fill="#8d887e" stroke="none" stroke-width="0.4"/><polygon points="151.6,1340.5 203.9,1370.7 183.2,1382.7 130.8,1352.5" fill="#f0e7d7" stroke="none" stroke-width="0.4"/>
<polygon points="565.7,1500.4 514.5,1529.9 514.5,1384.9 565.7,1355.4" fill="#b0a99d" stroke="none" stroke-width="0.4"/><polygon points="493.8,1517.9 514.5,1529.9 514.5,1384.9 493.8,1372.9" fill="#8d887e" stroke="none" stroke-width="0.4"/><polygon points="544.9,1343.4 565.7,1355.4 514.5,1384.9 493.8,1372.9" fill="#f0e7d7" stroke="none" stroke-width="0.4"/>
<polygon points="256.3,1546.0 235.6,1558.0 235.6,1413.0 256.3,1401.0" fill="#b0a99d" stroke="none" stroke-width="0.4"/><polygon points="183.2,1527.7 235.6,1558.0 235.6,1413.0 183.2,1382.7" fill="#8d887e" stroke="none" stroke-width="0.4"/><polygon points="203.9,1370.7 256.3,1401.0 235.6,1413.0 183.2,1382.7" fill="#f0e7d7" stroke="none" stroke-width="0.4"/>
<polygon points="514.5,1529.9 463.4,1559.5 463.4,1414.5 514.5,1384.9" fill="#b0a99d" stroke="none" stroke-width="0.4"/><polygon points="442.6,1547.5 463.4,1559.5 463.4,1414.5 442.6,1402.5" fill="#8d887e" stroke="none" stroke-width="0.4"/><polygon points="493.8,1372.9 514.5,1384.9 463.4,1414.5 442.6,1402.5" fill="#f0e7d7" stroke="none" stroke-width="0.4"/>
<polygon points="308.7,1576.2 288.0,1588.2 288.0,1443.2 308.7,1431.2" fill="#b0a99d" stroke="none" stroke-width="0.4"/><polygon points="235.6,1558.0 288.0,1588.2 288.0,1443.2 235.6,1413.0" fill="#8d887e" stroke="none" stroke-width="0.4"/><polygon points="256.3,1401.0 308.7,1431.2 288.0,1443.2 235.6,1413.0" fill="#f0e7d7" stroke="none" stroke-width="0.4"/>
<polygon points="463.4,1559.5 412.3,1589.0 412.3,1444.0 463.4,1414.5" fill="#b0a99d" stroke="none" stroke-width="0.4"/><polygon points="391.5,1577.0 412.3,1589.0 412.3,1444.0 391.5,1432.0" fill="#8d887e" stroke="none" stroke-width="0.4"/><polygon points="442.6,1402.5 463.4,1414.5 412.3,1444.0 391.5,1432.0" fill="#f0e7d7" stroke="none" stroke-width="0.4"/>
<polygon points="361.1,1606.5 340.3,1618.5 340.3,1473.5 361.1,1461.5" fill="#b0a99d" stroke="none" stroke-width="0.4"/><polygon points="288.0,1588.2 340.3,1618.5 340.3,1473.5 288.0,1443.2" fill="#8d887e" stroke="none" stroke-width="0.4"/><polygon points="308.7,1431.2 361.1,1461.5 340.3,1473.5 288.0,1443.2" fill="#f0e7d7" stroke="none" stroke-width="0.4"/>
<polygon points="412.3,1589.0 361.1,1618.5 361.1,1473.5 412.3,1444.0" fill="#b0a99d" stroke="none" stroke-width="0.4"/><polygon points="340.3,1606.5 361.1,1618.5 361.1,1473.5 340.3,1461.5" fill="#8d887e" stroke="none" stroke-width="0.4"/><polygon points="391.5,1432.0 412.3,1444.0 361.1,1473.5 340.3,1461.5" fill="#f0e7d7" stroke="none" stroke-width="0.4"/>
<polygon points="-168.9,1312.5 350.7,1612.5 350.7,1464.5 -168.9,1164.5" fill="#bfe0f0aa" stroke="#7fa6bc" stroke-width="2"/><line x1="2.6" y1="1411.5" x2="2.6" y2="1263.5" stroke="#7fa6bc" stroke-width="1"/><line x1="174.1" y1="1510.5" x2="174.1" y2="1362.5" stroke="#7fa6bc" stroke-width="1"/>
<text x="-69.3" y="105.0" font-family="PingFang SC,Microsoft YaHei,sans-serif" font-size="30" font-weight="bold" fill="#33312c" text-anchor="middle" paint-order="stroke" stroke="#fbfaf7" stroke-width="4">入户门</text>
<text x="374.1" y="136.0" font-family="PingFang SC,Microsoft YaHei,sans-serif" font-size="30" font-weight="bold" fill="#33312c" text-anchor="middle" paint-order="stroke" stroke="#fbfaf7" stroke-width="4">入户花园</text>
<text x="-71.9" y="188.5" font-family="PingFang SC,Microsoft YaHei,sans-serif" font-size="30" font-weight="bold" fill="#33312c" text-anchor="middle" paint-order="stroke" stroke="#fbfaf7" stroke-width="4">玄关</text>
<text x="368.1" y="457.5" font-family="PingFang SC,Microsoft YaHei,sans-serif" font-size="30" font-weight="bold" fill="#33312c" text-anchor="middle" paint-order="stroke" stroke="#fbfaf7" stroke-width="4">厨房</text>
<text x="584.6" y="582.5" font-family="PingFang SC,Microsoft YaHei,sans-serif" font-size="30" font-weight="bold" fill="#33312c" text-anchor="middle" paint-order="stroke" stroke="#fbfaf7" stroke-width="4">生活阳台</text>
<text x="896.3" y="657.5" font-family="PingFang SC,Microsoft YaHei,sans-serif" font-size="30" font-weight="bold" fill="#33312c" text-anchor="middle" paint-order="stroke" stroke="#fbfaf7" stroke-width="4">书房</text>
<text x="1104.2" y="837.5" font-family="PingFang SC,Microsoft YaHei,sans-serif" font-size="30" font-weight="bold" fill="#33312c" text-anchor="middle" paint-order="stroke" stroke="#fbfaf7" stroke-width="4">次卧 (二)</text>
<text x="619.2" y="792.5" font-family="PingFang SC,Microsoft YaHei,sans-serif" font-size="30" font-weight="bold" fill="#33312c" text-anchor="middle" paint-order="stroke" stroke="#fbfaf7" stroke-width="4">内部过渡</text>
<text x="866.0" y="975.0" font-family="PingFang SC,Microsoft YaHei,sans-serif" font-size="30" font-weight="bold" fill="#33312c" text-anchor="middle" paint-order="stroke" stroke="#fbfaf7" stroke-width="4">公卫</text>
<text x="420.0" y="932.5" font-family="PingFang SC,Microsoft YaHei,sans-serif" font-size="30" font-weight="bold" fill="#33312c" text-anchor="middle" paint-order="stroke" stroke="#fbfaf7" stroke-width="4">主卧衣帽间</text>
<text x="679.8" y="1082.5" font-family="PingFang SC,Microsoft YaHei,sans-serif" font-size="30" font-weight="bold" fill="#33312c" text-anchor="middle" paint-order="stroke" stroke="#fbfaf7" stroke-width="4">主卫</text>
<text x="272.8" y="1167.5" font-family="PingFang SC,Microsoft YaHei,sans-serif" font-size="30" font-weight="bold" fill="#33312c" text-anchor="middle" paint-order="stroke" stroke="#fbfaf7" stroke-width="4">主卧睡眠区</text>
<text x="90.9" y="612.5" font-family="PingFang SC,Microsoft YaHei,sans-serif" font-size="30" font-weight="bold" fill="#33312c" text-anchor="middle" paint-order="stroke" stroke="#fbfaf7" stroke-width="4">餐厅区</text>
<text x="-82.3" y="712.5" font-family="PingFang SC,Microsoft YaHei,sans-serif" font-size="30" font-weight="bold" fill="#33312c" text-anchor="middle" paint-order="stroke" stroke="#fbfaf7" stroke-width="4">客厅区</text>
<text x="-447.7" y="923.5" font-family="PingFang SC,Microsoft YaHei,sans-serif" font-size="30" font-weight="bold" fill="#33312c" text-anchor="middle" paint-order="stroke" stroke="#fbfaf7" stroke-width="4">客厅·景观区</text>
<text x="-543.9" y="461.0" font-family="PingFang SC,Microsoft YaHei,sans-serif" font-size="30" font-weight="bold" fill="#33312c" text-anchor="middle" paint-order="stroke" stroke="#fbfaf7" stroke-width="4">套内过道</text>
<text x="-756.0" y="583.5" font-family="PingFang SC,Microsoft YaHei,sans-serif" font-size="30" font-weight="bold" fill="#33312c" text-anchor="middle" paint-order="stroke" stroke="#fbfaf7" stroke-width="4">次卧套房</text>
<text x="-969.9" y="460.0" font-family="PingFang SC,Microsoft YaHei,sans-serif" font-size="30" font-weight="bold" fill="#33312c" text-anchor="middle" paint-order="stroke" stroke="#fbfaf7" stroke-width="4">次卫</text>
</svg>