<svg xmlns="http://www.w3.org/2000/svg" width="980" height="760" font-family="Helvetica,Arial,sans-serif">
<rect width="980" height="760" fill="#fbfaf7"/>
<text x="40" y="40" font-size="20" font-weight="bold" fill="#2a241c">阅天府 D户型 · 全屋软装材质色彩搭配板</text>
<text x="40" y="62" font-size="11" fill="#888">现代轻奢暖调 · 锚色取自实景交付视频，软装配色由锚色延展，确保买回与现场成套</text>
<text x="40" y="100" font-size="14" font-weight="bold" fill="#5a4a32">① 既有硬装锚色（固定·取自实景）</text>
<rect x="40" y="116" width="108" height="82" rx="6" fill="#cabab6" stroke="#e3ddd0" stroke-width="1"/>
<text x="50" y="172" font-size="11" font-weight="bold" fill="#3a342c">洞石米</text>
<text x="50" y="186" font-size="9" fill="#3a342c" opacity="0.8">公区地砖</text>
<text x="50" y="134" font-size="9" fill="#3a342c" opacity="0.7">#CABAB6</text>
<rect x="157" y="116" width="108" height="82" rx="6" fill="#433d37" stroke="#e3ddd0" stroke-width="1"/>
<text x="167" y="172" font-size="11" font-weight="bold" fill="#efe9dd">深胡桃木</text>
<text x="167" y="186" font-size="9" fill="#efe9dd" opacity="0.8">公区墙/门</text>
<text x="167" y="134" font-size="9" fill="#efe9dd" opacity="0.7">#433D37</text>
<rect x="274" y="116" width="108" height="82" rx="6" fill="#b1acb1" stroke="#e3ddd0" stroke-width="1"/>
<text x="284" y="172" font-size="11" font-weight="bold" fill="#2a241c">灰咖</text>
<text x="284" y="186" font-size="9" fill="#2a241c" opacity="0.8">公区墙漆</text>
<text x="284" y="134" font-size="9" fill="#2a241c" opacity="0.7">#B1ACB1</text>
<rect x="391" y="116" width="108" height="82" rx="6" fill="#846752" stroke="#e3ddd0" stroke-width="1"/>
<text x="401" y="172" font-size="11" font-weight="bold" fill="#efe9dd">暖橡木</text>
<text x="401" y="186" font-size="9" fill="#efe9dd" opacity="0.8">主卧地板</text>
<text x="401" y="134" font-size="9" fill="#efe9dd" opacity="0.7">#846752</text>
<rect x="508" y="116" width="108" height="82" rx="6" fill="#9a8d78" stroke="#e3ddd0" stroke-width="1"/>
<text x="518" y="172" font-size="11" font-weight="bold" fill="#2a241c">奶咖格栅</text>
<text x="518" y="186" font-size="9" fill="#2a241c" opacity="0.8">主卧背景墙</text>
<text x="518" y="134" font-size="9" fill="#2a241c" opacity="0.7">#9A8D78</text>
<rect x="625" y="116" width="108" height="82" rx="6" fill="#a8875a" stroke="#e3ddd0" stroke-width="1"/>
<text x="635" y="172" font-size="11" font-weight="bold" fill="#2a241c">金棕石</text>
<text x="635" y="186" font-size="9" fill="#2a241c" opacity="0.8">主卫台面</text>
<text x="635" y="134" font-size="9" fill="#2a241c" opacity="0.7">#A8875A</text>
<rect x="742" y="116" width="108" height="82" rx="6" fill="#6a6d74" stroke="#e3ddd0" stroke-width="1"/>
<text x="752" y="172" font-size="11" font-weight="bold" fill="#efe9dd">微水泥灰</text>
<text x="752" y="186" font-size="9" fill="#efe9dd" opacity="0.8">主卫墙</text>
<text x="752" y="134" font-size="9" fill="#efe9dd" opacity="0.7">#6A6D74</text>
<rect x="859" y="116" width="108" height="82" rx="6" fill="#c2bfba" stroke="#e3ddd0" stroke-width="1"/>
<text x="869" y="172" font-size="11" font-weight="bold" fill="#2a241c">暖白</text>
<text x="869" y="186" font-size="9" fill="#2a241c" opacity="0.8">次卧墙</text>
<text x="869" y="134" font-size="9" fill="#2a241c" opacity="0.7">#C2BFBA</text>
<text x="40" y="240" font-size="14" font-weight="bold" fill="#5a4a32">② 软装主色 70%（大面布艺/墙饰/床品）</text>
<rect x="40" y="256" width="210" height="88" rx="6" fill="#ddd6c8" stroke="#e3ddd0" stroke-width="1"/>
<text x="50" y="318" font-size="11" font-weight="bold" fill="#2a241c">暖白</text>
<text x="50" y="332" font-size="9" fill="#2a241c" opacity="0.8">墙饰/纱帘</text>
<text x="50" y="274" font-size="9" fill="#2a241c" opacity="0.7">#DDD6C8</text>
<text x="50" y="358" font-size="9" fill="#a09483">→挂 暖白#c2bfba</text>
<rect x="270" y="256" width="210" height="88" rx="6" fill="#d8c9ad" stroke="#e3ddd0" stroke-width="1"/>
<text x="280" y="318" font-size="11" font-weight="bold" fill="#2a241c">燕麦米</text>
<text x="280" y="332" font-size="9" fill="#2a241c" opacity="0.8">主沙发/床品</text>
<text x="280" y="274" font-size="9" fill="#2a241c" opacity="0.7">#D8C9AD</text>
<text x="280" y="358" font-size="9" fill="#a09483">→挂 洞石米</text>
<rect x="500" y="256" width="210" height="88" rx="6" fill="#b8ad9a" stroke="#e3ddd0" stroke-width="1"/>
<text x="510" y="318" font-size="11" font-weight="bold" fill="#2a241c">浅灰咖</text>
<text x="510" y="332" font-size="9" fill="#2a241c" opacity="0.8">窗帘/地毯底</text>
<text x="510" y="274" font-size="9" fill="#2a241c" opacity="0.7">#B8AD9A</text>
<text x="510" y="358" font-size="9" fill="#a09483">→挂 灰咖墙</text>
<text x="40" y="392" font-size="14" font-weight="bold" fill="#5a4a32">③ 软装辅色 25%（家具/皮革/单椅）</text>
<rect x="40" y="408" width="210" height="88" rx="6" fill="#b07a4e" stroke="#e3ddd0" stroke-width="1"/>
<text x="50" y="470" font-size="11" font-weight="bold" fill="#efe9dd">焦糖驼皮</text>
<text x="50" y="484" font-size="9" fill="#efe9dd" opacity="0.8">主沙发/床软包</text>
<text x="50" y="426" font-size="9" fill="#efe9dd" opacity="0.7">#B07A4E</text>
<text x="50" y="510" font-size="9" fill="#a09483">→呼应 暖橡木</text>
<rect x="270" y="408" width="210" height="88" rx="6" fill="#5a4332" stroke="#e3ddd0" stroke-width="1"/>
<text x="280" y="470" font-size="11" font-weight="bold" fill="#efe9dd">胡桃木家具</text>
<text x="280" y="484" font-size="9" fill="#efe9dd" opacity="0.8">茶几/柜/桌</text>
<text x="280" y="426" font-size="9" fill="#efe9dd" opacity="0.7">#5A4332</text>
<text x="280" y="510" font-size="9" fill="#a09483">→呼应 深胡桃木</text>
<rect x="500" y="408" width="210" height="88" rx="6" fill="#8a98a0" stroke="#e3ddd0" stroke-width="1"/>
<text x="510" y="470" font-size="11" font-weight="bold" fill="#2a241c">雾霾灰蓝</text>
<text x="510" y="484" font-size="9" fill="#2a241c" opacity="0.8">单椅/抱枕</text>
<text x="510" y="426" font-size="9" fill="#2a241c" opacity="0.7">#8A98A0</text>
<text x="510" y="510" font-size="9" fill="#a09483">→呼应 微水泥灰</text>
<text x="40" y="544" font-size="14" font-weight="bold" fill="#5a4a32">④ 点缀色 5%（金属/抱枕/艺术品/绿植）</text>
<rect x="40" y="560" width="156" height="84" rx="6" fill="#c2a36b" stroke="#e3ddd0" stroke-width="1"/>
<text x="50" y="618" font-size="11" font-weight="bold" fill="#efe9dd">香槟金</text>
<text x="50" y="632" font-size="9" fill="#efe9dd" opacity="0.8">灯具/五金</text>
<text x="50" y="578" font-size="9" fill="#efe9dd" opacity="0.7">#C2A36B</text>
<rect x="212" y="560" width="156" height="84" rx="6" fill="#8a6a3a" stroke="#e3ddd0" stroke-width="1"/>
<text x="222" y="618" font-size="11" font-weight="bold" fill="#efe9dd">古铜</text>
<text x="222" y="632" font-size="9" fill="#efe9dd" opacity="0.8">落地灯/壁灯</text>
<text x="222" y="578" font-size="9" fill="#efe9dd" opacity="0.7">#8A6A3A</text>
<rect x="384" y="560" width="156" height="84" rx="6" fill="#3d5440" stroke="#e3ddd0" stroke-width="1"/>
<text x="394" y="618" font-size="11" font-weight="bold" fill="#efe9dd">墨绿</text>
<text x="394" y="632" font-size="9" fill="#efe9dd" opacity="0.8">单椅/抱枕/植</text>
<text x="394" y="578" font-size="9" fill="#efe9dd" opacity="0.7">#3D5440</text>
<rect x="556" y="560" width="156" height="84" rx="6" fill="#6e3338" stroke="#e3ddd0" stroke-width="1"/>
<text x="566" y="618" font-size="11" font-weight="bold" fill="#efe9dd">酒红</text>
<text x="566" y="632" font-size="9" fill="#efe9dd" opacity="0.8">抱枕/艺术品</text>
<text x="566" y="578" font-size="9" fill="#efe9dd" opacity="0.7">#6E3338</text>
<text x="40" y="690" font-size="14" font-weight="bold" fill="#5a4a32">⑤ 核心材质质感</text>
<rect x="40" y="704" width="121" height="26" rx="13" fill="#efe9dd" stroke="#d6cdb8"/>
<text x="100.5" y="721" font-size="10" fill="#5a4a32" text-anchor="middle">半哑光真皮(焦糖)</text>
<rect x="169" y="704" width="44" height="26" rx="13" fill="#efe9dd" stroke="#d6cdb8"/>
<text x="191.0" y="721" font-size="10" fill="#5a4a32" text-anchor="middle">丝绒</text>
<rect x="221" y="704" width="99" height="26" rx="13" fill="#efe9dd" stroke="#d6cdb8"/>
<text x="270.5" y="721" font-size="10" fill="#5a4a32" text-anchor="middle">羊毛+真丝地毯</text>
<rect x="328" y="704" width="66" height="26" rx="13" fill="#efe9dd" stroke="#d6cdb8"/>
<text x="361.0" y="721" font-size="10" fill="#5a4a32" text-anchor="middle">亚麻棉麻</text>
<rect x="402" y="704" width="77" height="26" rx="13" fill="#efe9dd" stroke="#d6cdb8"/>
<text x="440.5" y="721" font-size="10" fill="#5a4a32" text-anchor="middle">胡桃木实木</text>
<rect x="487" y="704" width="110" height="26" rx="13" fill="#efe9dd" stroke="#d6cdb8"/>
<text x="542.0" y="721" font-size="10" fill="#5a4a32" text-anchor="middle">天然大理石/岩板</text>
<rect x="605" y="704" width="88" height="26" rx="13" fill="#efe9dd" stroke="#d6cdb8"/>
<text x="649.0" y="721" font-size="10" fill="#5a4a32" text-anchor="middle">香槟金不锈钢</text>
<rect x="701" y="704" width="66" height="26" rx="13" fill="#efe9dd" stroke="#d6cdb8"/>
<text x="734.0" y="721" font-size="10" fill="#5a4a32" text-anchor="middle">艺术玻璃</text>
<rect x="775" y="704" width="77" height="26" rx="13" fill="#efe9dd" stroke="#d6cdb8"/>
<text x="813.5" y="721" font-size="10" fill="#5a4a32" text-anchor="middle">藤编/陶艺</text>
</svg>