<?xml version="1.0" encoding="utf-8"?>
<svg xmlns="http://www.w3.org/2000/svg" viewBox="0 0 2200 1800" width="100%" height="100%">
  <defs>
    <style>
      .bg { fill: #ffffff; }
      .wall-thick { stroke: #1a1a1a; stroke-width: 7; stroke-linecap: round; stroke-linejoin: round; fill: none; }
      .wall-thin { stroke: #555555; stroke-width: 3; fill: none; }
      .wall-public { stroke: #b0b0b0; stroke-width: 3; stroke-dasharray: 4,4; fill: none; }
      .room-bedroom { fill: #fbfbfb; stroke: #d0d0d0; stroke-width: 1; }
      .room-living { fill: #fcfdfd; stroke: #d0d0d0; stroke-width: 1; }
      .room-wet { fill: #f5f6f7; stroke: #d0d0d0; stroke-width: 1; }
      .room-outdoor { fill: #f7f5f2; stroke: #d0d0d0; stroke-width: 1; }
      .room-corridor { fill: #fafafa; stroke: #d0d0d0; stroke-width: 1; }
      .room-public { fill: #f0f0f0; stroke: #e0e0e0; stroke-width: 1; }
      .window { stroke: #6ba4c7; stroke-width: 5; fill: #eef7fc; }
      .door-leaf { stroke: #b5845c; stroke-width: 4; stroke-linecap: round; fill: none; }
      .door-arc { stroke: #b5845c; stroke-width: 2; stroke-dasharray: 4,4; fill: none; }
      .door-sliding { fill: #6ba4c7; stroke: #4a7b9d; stroke-width: 1; }
      .zh-label { font-family: "Microsoft YaHei", "SimHei", "PingFang SC", sans-serif; font-size: 24px; font-weight: bold; fill: #000000; text-anchor: middle; dominant-baseline: middle; }
      .zh-label-public { font-family: "Microsoft YaHei", "SimHei", "PingFang SC", sans-serif; font-size: 20px; font-weight: normal; fill: #888888; text-anchor: middle; dominant-baseline: middle; }
      .en-label { font-family: Arial, sans-serif; font-size: 14px; font-weight: normal; fill: #444444; text-anchor: middle; dominant-baseline: middle; }
      .dim-line { stroke: #776e65; stroke-width: 1.5; }
      .dim-tick { stroke: #443f3a; stroke-width: 2.5; }
      .dim-text { font-family: Arial, sans-serif; font-size: 16px; font-weight: bold; fill: #222222; text-anchor: middle; dominant-baseline: middle; }
    </style>
  </defs>
<rect class="bg" x="0" y="0" width="2200" height="1800"/>
<g transform="translate(150, 250)">
<g id="rooms">
<rect class="room-public" x="0" y="250" width="180" height="390"/>
<rect class="room-public" x="0" y="640" width="495" height="280"/>
<rect class="room-outdoor" x="365" y="0" width="310" height="250"/>
<rect class="room-living" x="180" y="250" width="315" height="390"/>
<rect class="room-living" x="495" y="250" width="180" height="390"/>
<rect class="room-living" x="495" y="490" width="720" height="765"/>
<rect class="room-wet" x="675" y="265" width="330" height="225"/>
<rect class="room-outdoor" x="1005" y="265" width="210" height="225"/>
<rect class="room-living" x="495" y="1255" width="720" height="155"/>
<rect class="room-corridor" x="180" y="920" width="315" height="100"/>
<rect class="room-bedroom" x="180" y="1020" width="315" height="390"/>
<rect class="room-wet" x="0" y="1020" width="180" height="390"/>
<rect class="room-corridor" x="0" y="920" width="180" height="100"/>
<rect class="room-bedroom" x="1215" y="170" width="300" height="320"/>
<rect class="room-bedroom" x="1515" y="170" width="300" height="400"/>
<rect class="room-corridor" x="1215" y="490" width="300" height="190"/>
<rect class="room-wet" x="1515" y="570" width="300" height="190"/>
<rect class="room-bedroom" x="1215" y="680" width="300" height="340"/>
<rect class="room-wet" x="1515" y="760" width="300" height="260"/>
<rect class="room-bedroom" x="1215" y="1020" width="600" height="390"/>
</g>
<g id="walls">
<line class="wall-public" x1="0" y1="250" x2="0" y2="920"/>
<line class="wall-thick" x1="0" y1="920" x2="0" y2="1410"/>
<line class="wall-thick" x1="180" y1="250" x2="180" y2="300"/>
<line class="wall-thick" x1="180" y1="390" x2="180" y2="640"/>
<line class="wall-thick" x1="180" y1="1020" x2="180" y2="1410"/>
<line class="wall-thick" x1="365" y1="0" x2="365" y2="250"/>
<line class="wall-thick" x1="495" y1="250" x2="495" y2="340"/>
<line class="wall-thick" x1="495" y1="430" x2="495" y2="640"/>
<line class="wall-thick" x1="495" y1="1025" x2="495" y2="1410"/>
<line class="wall-thick" x1="495" y1="640" x2="495" y2="920"/>
<line class="wall-thick" x1="675" y1="0" x2="675" y2="265"/>
<line class="wall-thick" x1="675" y1="345" x2="675" y2="490"/>
<line class="wall-thick" x1="1215" y1="170" x2="1215" y2="265"/>
<line class="wall-thick" x1="1215" y1="265" x2="1215" y2="490"/>
<line class="wall-thick" x1="1215" y1="680" x2="1215" y2="1410"/>
<line class="wall-thick" x1="1515" y1="170" x2="1515" y2="490"/>
<line class="wall-thick" x1="1515" y1="570" x2="1515" y2="660"/>
<line class="wall-thick" x1="1515" y1="740" x2="1515" y2="800"/>
<line class="wall-thick" x1="1515" y1="870" x2="1515" y2="1020"/>
<line class="wall-thick" x1="1815" y1="170" x2="1815" y2="1410"/>
<line class="wall-thick" x1="365" y1="0" x2="675" y2="0"/>
<line class="wall-thick" x1="1215" y1="170" x2="1815" y2="170"/>
<line class="wall-public" x1="0" y1="250" x2="180" y2="250"/>
<line class="wall-thick" x1="180" y1="250" x2="365" y2="250"/>
<line class="wall-thick" x1="675" y1="265" x2="1215" y2="265"/>
<line class="wall-thick" x1="675" y1="490" x2="745" y2="490"/>
<line class="wall-thick" x1="905" y1="490" x2="1120" y2="490"/>
<line class="wall-thick" x1="1215" y1="490" x2="1430" y2="490"/>
<line class="wall-thick" x1="1515" y1="570" x2="1815" y2="570"/>
<line class="wall-thick" x1="180" y1="640" x2="495" y2="640"/>
<line class="wall-thick" x1="1215" y1="680" x2="1435" y2="680"/>
<line class="wall-thick" x1="1515" y1="760" x2="1815" y2="760"/>
<line class="wall-thick" x1="0" y1="920" x2="495" y2="920"/>
<line class="wall-thick" x1="0" y1="1020" x2="50" y2="1020"/>
<line class="wall-thick" x1="130" y1="1020" x2="180" y2="1020"/>
<line class="wall-thick" x1="1215" y1="1020" x2="1430" y2="1020"/>
<line class="wall-thick" x1="1515" y1="1020" x2="1815" y2="1020"/>
<line class="wall-thick" x1="0" y1="1410" x2="1815" y2="1410"/>
<line class="wall-public" x1="0" y1="640" x2="180" y2="640"/>
<line class="wall-public" x1="180" y1="640" x2="180" y2="920"/>
<line class="wall-thin" x1="0" y1="480" x2="180" y2="480"/>
<line class="wall-thin" x1="0" y1="520" x2="180" y2="520"/>
<line class="wall-thin" x1="0" y1="560" x2="180" y2="560"/>
<line class="wall-thin" x1="0" y1="600" x2="180" y2="600"/>
<line class="wall-thick" x1="1435" y1="680" x2="1435" y2="760"/>
</g>
<g id="windows">
<rect class="window" data-wtype="full" x="495" y="1405" width="720" height="10"/>
<rect class="window" data-wtype="full" x="1215" y="1405" width="600" height="10"/>
<rect class="window" data-wtype="full" x="180" y="1405" width="315" height="10"/>
<rect class="window" data-wtype="normal" x="1235" y="165" width="260" height="10"/>
<rect class="window" data-wtype="normal" x="1535" y="165" width="260" height="10"/>
<rect class="window" data-wtype="normal" x="705" y="260" width="260" height="10"/>
<rect class="window" data-wtype="full" x="1035" y="260" width="150" height="10"/>
<rect class="window" data-wtype="high" x="1810" y="820" width="10" height="190"/>
<rect class="window" data-wtype="high" x="1810" y="600" width="10" height="130"/>
<rect class="window" data-wtype="full" x="20" y="1405" width="140" height="10"/>
<rect class="window" data-wtype="full" x="395" y="-5" width="250" height="10"/>
<rect class="window" data-wtype="full" x="360" y="30" width="10" height="190"/>
<rect class="window" data-wtype="full" x="195" y="245" width="160" height="10"/>
</g>
<g id="doors">
<path class="door-arc" d="M 675 345 A 80 80 0 0 0 755 265"/> <line class="door-leaf" x1="675" y1="265" x2="755" y2="265"/>
<path class="door-arc" d="M 495 430 A 90 90 0 0 1 405 340"/> <line class="door-leaf" x1="495" y1="340" x2="405" y2="340"/>
<path class="door-arc" d="M 180 300 A 90 90 0 0 1 270 390"/> <line class="door-leaf" x1="180" y1="390" x2="270" y2="390"/>
<path class="door-arc" d="M 1515 490 A 85 85 0 0 1 1430 575"/> <line class="door-leaf" x1="1430" y1="490" x2="1430" y2="575"/>
<path class="door-arc" d="M 1515 570 A 80 80 0 0 0 1595 490"/> <line class="door-leaf" x1="1515" y1="490" x2="1595" y2="490"/>
<path class="door-arc" d="M 1515 660 A 80 80 0 0 1 1595 740"/> <line class="door-leaf" x1="1515" y1="740" x2="1595" y2="740"/>
<path class="door-arc" d="M 1515 870 A 70 70 0 0 1 1445 800"/> <line class="door-leaf" x1="1515" y1="800" x2="1445" y2="800"/>
<path class="door-arc" d="M 1515 800 A 70 70 0 0 1 1585 870"/> <line class="door-leaf" x1="1515" y1="870" x2="1585" y2="870"/>
<path class="door-arc" d="M 1430 1020 A 85 85 0 0 0 1515 1105"/> <line class="door-leaf" x1="1515" y1="1020" x2="1515" y2="1105"/>
<path class="door-arc" d="M 495 1025 A 105 105 0 0 1 390 920"/> <line class="door-leaf" x1="495" y1="920" x2="390" y2="920"/>
<path class="door-arc" d="M 50 1020 A 80 80 0 0 0 130 1100"/> <line class="door-leaf" x1="130" y1="1020" x2="130" y2="1100"/>
<rect class="door-sliding" x="745" y="487" width="85" height="5"/><rect class="door-sliding" x="825" y="493" width="85" height="5"/>
</g>
<g id="dims">
<g transform="translate(0, -50)">
<line class="dim-line" x1="365" y1="0" x2="675" y2="0"/>
<line class="dim-tick" x1="365" y1="-6" x2="365" y2="6"/>
<text class="dim-text" x="520" y="-15">3100</text>
<line class="dim-line" x1="675" y1="0" x2="1215" y2="0"/>
<line class="dim-tick" x1="675" y1="-6" x2="675" y2="6"/>
<text class="dim-text" x="945" y="-15">5400</text>
<line class="dim-line" x1="1215" y1="0" x2="1515" y2="0"/>
<line class="dim-tick" x1="1215" y1="-6" x2="1215" y2="6"/>
<text class="dim-text" x="1365" y="-15">3000</text>
<line class="dim-line" x1="1515" y1="0" x2="1815" y2="0"/>
<line class="dim-tick" x1="1515" y1="-6" x2="1515" y2="6"/>
<text class="dim-text" x="1665" y="-15">3000</text>
<line class="dim-tick" x1="1815" y1="-6" x2="1815" y2="6"/>
</g>
<g transform="translate(-60, 0)">
<line class="dim-line" x1="0" y1="250" x2="0" y2="640"/>
<line class="dim-tick" x1="-6" y1="250" x2="6" y2="250"/>
<text class="dim-text" x="-25" y="445" transform="rotate(-90 -25 445)">3900</text>
<line class="dim-line" x1="0" y1="640" x2="0" y2="920"/>
<line class="dim-tick" x1="-6" y1="640" x2="6" y2="640"/>
<text class="dim-text" x="-25" y="780" transform="rotate(-90 -25 780)">2800</text>
<line class="dim-line" x1="0" y1="920" x2="0" y2="1020"/>
<line class="dim-tick" x1="-6" y1="920" x2="6" y2="920"/>
<text class="dim-text" x="-25" y="970" transform="rotate(-90 -25 970)">1000</text>
<line class="dim-line" x1="0" y1="1020" x2="0" y2="1410"/>
<line class="dim-tick" x1="-6" y1="1020" x2="6" y2="1020"/>
<text class="dim-text" x="-25" y="1215" transform="rotate(-90 -25 1215)">3900</text>
<line class="dim-tick" x1="-6" y1="1410" x2="6" y2="1410"/>
</g>
</g>
<g id="furniture-layer">
<rect x="190" y="258" width="150" height="38" rx="2" fill="#ece0c8" stroke="#b9a274" stroke-width="1.2"/>
<rect x="360" y="258" width="120" height="38" rx="2" fill="#ece0c8" stroke="#b9a274" stroke-width="1.2"/>
<rect x="205" y="555" width="165" height="53" rx="2" fill="#ece0c8" stroke="#b9a274" stroke-width="1.2"/>
<circle cx="430" cy="560" r="22" fill="#cfe0cf" stroke="#6b8a6b" stroke-width="1.2"/>
<circle cx="420" cy="90" r="22" fill="#cfe0cf" stroke="#6b8a6b" stroke-width="1.2"/>
<circle cx="470" cy="70" r="16" fill="#cfe0cf" stroke="#6b8a6b" stroke-width="1.2"/>
<rect x="680" y="270" width="320" height="40" rx="2" fill="#ece0c8" stroke="#b9a274" stroke-width="1.2"/>
<text x="840" y="290" font-family="Microsoft YaHei,PingFang SC,sans-serif" font-size="10" fill="#5a4a33" text-anchor="middle" dominant-baseline="middle">L型橱柜</text>
<rect x="680" y="310" width="40" height="180" rx="2" fill="#ece0c8" stroke="#b9a274" stroke-width="1.2"/>
<rect x="940" y="335" width="58" height="105" rx="2" fill="#cdb18f" stroke="#8a6a44" stroke-width="1.2"/>
<text x="969" y="388" font-family="Microsoft YaHei,PingFang SC,sans-serif" font-size="10" fill="#5a4a33" text-anchor="middle" dominant-baseline="middle">冰箱</text>
<rect x="1022" y="282" width="68" height="80" rx="2" fill="#ece0c8" stroke="#b9a274" stroke-width="1.2"/>
<text x="1056" y="322" font-family="Microsoft YaHei,PingFang SC,sans-serif" font-size="10" fill="#5a4a33" text-anchor="middle" dominant-baseline="middle">洗烘</text>
<rect x="1110" y="282" width="90" height="60" rx="2" fill="#dde7ec" stroke="#8aa6b4" stroke-width="1.2"/>
<text x="1155" y="312" font-family="Microsoft YaHei,PingFang SC,sans-serif" font-size="10" fill="#5a4a33" text-anchor="middle" dominant-baseline="middle">台盆</text>
<rect x="700" y="600" width="300" height="110" rx="2" fill="#ece0c8" stroke="#b9a274" stroke-width="1.2"/>
<rect x="716" y="574" width="44" height="20" rx="2" fill="#cfe0d4" stroke="#7fa088" stroke-width="1.2"/>
<rect x="716" y="716" width="44" height="20" rx="2" fill="#cfe0d4" stroke="#7fa088" stroke-width="1.2"/>
<rect x="790" y="574" width="44" height="20" rx="2" fill="#cfe0d4" stroke="#7fa088" stroke-width="1.2"/>
<rect x="790" y="716" width="44" height="20" rx="2" fill="#cfe0d4" stroke="#7fa088" stroke-width="1.2"/>
<rect x="866" y="574" width="44" height="20" rx="2" fill="#cfe0d4" stroke="#7fa088" stroke-width="1.2"/>
<rect x="866" y="716" width="44" height="20" rx="2" fill="#cfe0d4" stroke="#7fa088" stroke-width="1.2"/>
<rect x="940" y="574" width="44" height="20" rx="2" fill="#cfe0d4" stroke="#7fa088" stroke-width="1.2"/>
<rect x="940" y="716" width="44" height="20" rx="2" fill="#cfe0d4" stroke="#7fa088" stroke-width="1.2"/>
<text x="850" y="655" font-family="Microsoft YaHei,PingFang SC,sans-serif" font-size="10" fill="#5a4a33" text-anchor="middle" dominant-baseline="middle">餐桌</text>
<rect x="500" y="560" width="44" height="210" rx="2" fill="#ece0c8" stroke="#b9a274" stroke-width="1.2"/>
<rect x="700" y="985" width="360" height="320" fill="none" stroke="#c9bb96" stroke-width="1" stroke-dasharray="6,4"/>
<rect x="720" y="1008" width="96" height="232" rx="2" fill="#d8c19c" stroke="#a9895c" stroke-width="1.2"/>
<text x="768" y="1124" font-family="Microsoft YaHei,PingFang SC,sans-serif" font-size="10" fill="#5a4a33" text-anchor="middle" dominant-baseline="middle">沙发</text>
<rect x="816" y="1190" width="210" height="80" rx="2" fill="#d8c19c" stroke="#a9895c" stroke-width="1.2"/>
<text x="921" y="1230" font-family="Microsoft YaHei,PingFang SC,sans-serif" font-size="10" fill="#5a4a33" text-anchor="middle" dominant-baseline="middle">沙发</text>
<rect x="900" y="1070" width="100" height="108" rx="2" fill="#e7d9bb" stroke="#b9ad8a" stroke-width="1.2"/>
<text x="950" y="1124" font-family="Microsoft YaHei,PingFang SC,sans-serif" font-size="10" fill="#5a4a33" text-anchor="middle" dominant-baseline="middle">茶几</text>
<rect x="1158" y="1040" width="44" height="200" rx="2" fill="#cdb18f" stroke="#8a6a44" stroke-width="1.2"/>
<text x="1180" y="1140" font-family="Microsoft YaHei,PingFang SC,sans-serif" font-size="10" fill="#5a4a33" text-anchor="middle" dominant-baseline="middle">影视柜</text>
<rect x="610" y="1330" width="66" height="66" rx="2" fill="#cfe0d4" stroke="#7fa088" stroke-width="1.2"/>
<text x="643" y="1363" font-family="Microsoft YaHei,PingFang SC,sans-serif" font-size="10" fill="#5a4a33" text-anchor="middle" dominant-baseline="middle">旋转椅</text>
<rect x="700" y="1330" width="66" height="66" rx="2" fill="#cfe0d4" stroke="#7fa088" stroke-width="1.2"/>
<text x="733" y="1363" font-family="Microsoft YaHei,PingFang SC,sans-serif" font-size="10" fill="#5a4a33" text-anchor="middle" dominant-baseline="middle">旋转椅</text>
<circle cx="782" cy="1362" r="24" fill="#e7d9bb" stroke="#b9ad8a" stroke-width="1.2"/>
<circle cx="1010" cy="1372" r="22" fill="#cfe0cf" stroke="#6b8a6b" stroke-width="1.2"/>
<circle cx="1062" cy="1360" r="15" fill="#cfe0cf" stroke="#6b8a6b" stroke-width="1.2"/>
<rect x="1248" y="185" width="205" height="66" rx="2" fill="#ece0c8" stroke="#b9a274" stroke-width="1.2"/>
<text x="1350" y="218" font-family="Microsoft YaHei,PingFang SC,sans-serif" font-size="10" fill="#5a4a33" text-anchor="middle" dominant-baseline="middle">书桌</text>
<rect x="1479" y="185" width="34" height="285" rx="2" fill="#ece0c8" stroke="#b9a274" stroke-width="1.2"/>
<text x="1496" y="328" font-family="Microsoft YaHei,PingFang SC,sans-serif" font-size="10" fill="#5a4a33" text-anchor="middle" dominant-baseline="middle">书柜</text>
<rect x="1220" y="275" width="86" height="200" rx="2" fill="#d8c19c" stroke="#a9895c" stroke-width="1.2"/>
<text x="1263" y="375" font-family="Microsoft YaHei,PingFang SC,sans-serif" font-size="10" fill="#5a4a33" text-anchor="middle" dominant-baseline="middle">沙发</text>
<rect x="1325" y="398" width="72" height="72" rx="2" fill="#cfe0d4" stroke="#7fa088" stroke-width="1.2"/>
<circle cx="1416" cy="432" r="15" fill="#e7d9bb" stroke="#b9ad8a" stroke-width="1.2"/>
<rect x="1585" y="185" width="160" height="200" rx="2" fill="#e3c9a6" stroke="#b78f5e" stroke-width="1.2"/>
<text x="1665" y="285" font-family="Microsoft YaHei,PingFang SC,sans-serif" font-size="10" fill="#5a4a33" text-anchor="middle" dominant-baseline="middle">双人床</text>
<rect x="1545" y="185" width="38" height="46" rx="2" fill="#ece0c8" stroke="#b9a274" stroke-width="1.2"/>
<rect x="1747" y="185" width="38" height="46" rx="2" fill="#ece0c8" stroke="#b9a274" stroke-width="1.2"/>
<rect x="1600" y="524" width="210" height="42" rx="2" fill="#cdb18f" stroke="#a9895c" stroke-width="1.2"/>
<text x="1705" y="545" font-family="Microsoft YaHei,PingFang SC,sans-serif" font-size="10" fill="#5a4a33" text-anchor="middle" dominant-baseline="middle">衣柜</text>
<rect x="1770" y="330" width="40" height="150" rx="2" fill="#ece0c8" stroke="#b9a274" stroke-width="1.2"/>
<text x="1790" y="405" font-family="Microsoft YaHei,PingFang SC,sans-serif" font-size="10" fill="#5a4a33" text-anchor="middle" dominant-baseline="middle">书桌</text>
<rect x="1225" y="590" width="120" height="36" rx="2" fill="#ece0c8" stroke="#b9a274" stroke-width="1.2"/>
<rect x="1530" y="582" width="120" height="38" rx="2" fill="#dde7ec" stroke="#8aa6b4" stroke-width="1.2"/>
<text x="1590" y="601" font-family="Microsoft YaHei,PingFang SC,sans-serif" font-size="10" fill="#5a4a33" text-anchor="middle" dominant-baseline="middle">台盆</text>
<rect x="1745" y="628" width="55" height="90" rx="2" fill="#dde7ec" stroke="#8aa6b4" stroke-width="1.2"/>
<text x="1772" y="673" font-family="Microsoft YaHei,PingFang SC,sans-serif" font-size="10" fill="#5a4a33" text-anchor="middle" dominant-baseline="middle">马桶</text>
<rect x="1220" y="685" width="205" height="38" rx="2" fill="#cdb18f" stroke="#a9895c" stroke-width="1.2"/>
<text x="1322" y="704" font-family="Microsoft YaHei,PingFang SC,sans-serif" font-size="10" fill="#5a4a33" text-anchor="middle" dominant-baseline="middle">衣柜</text>
<rect x="1220" y="685" width="40" height="330" rx="2" fill="#cdb18f" stroke="#a9895c" stroke-width="1.2"/>
<text x="1240" y="850" font-family="Microsoft YaHei,PingFang SC,sans-serif" font-size="10" fill="#5a4a33" text-anchor="middle" dominant-baseline="middle">衣柜</text>
<rect x="1475" y="885" width="38" height="130" rx="2" fill="#cdb18f" stroke="#a9895c" stroke-width="1.2"/>
<text x="1494" y="950" font-family="Microsoft YaHei,PingFang SC,sans-serif" font-size="10" fill="#5a4a33" text-anchor="middle" dominant-baseline="middle">衣柜</text>
<rect x="1300" y="852" width="120" height="130" rx="2" fill="#e7d9bb" stroke="#b9ad8a" stroke-width="1.2"/>
<text x="1360" y="917" font-family="Microsoft YaHei,PingFang SC,sans-serif" font-size="10" fill="#5a4a33" text-anchor="middle" dominant-baseline="middle">中岛</text>
<rect x="1560" y="768" width="165" height="40" rx="2" fill="#dde7ec" stroke="#8aa6b4" stroke-width="1.2"/>
<text x="1642" y="788" font-family="Microsoft YaHei,PingFang SC,sans-serif" font-size="10" fill="#5a4a33" text-anchor="middle" dominant-baseline="middle">台盆</text>
<rect x="1530" y="905" width="58" height="95" rx="2" fill="#dde7ec" stroke="#8aa6b4" stroke-width="1.2"/>
<text x="1559" y="952" font-family="Microsoft YaHei,PingFang SC,sans-serif" font-size="10" fill="#5a4a33" text-anchor="middle" dominant-baseline="middle">马桶</text>
<rect x="1620" y="872" width="95" height="128" rx="2" fill="#dde7ec" stroke="#8aa6b4" stroke-width="1.2"/>
<text x="1668" y="936" font-family="Microsoft YaHei,PingFang SC,sans-serif" font-size="10" fill="#5a4a33" text-anchor="middle" dominant-baseline="middle">淋浴</text>
<rect x="1735" y="850" width="72" height="160" rx="2" fill="#dde7ec" stroke="#8aa6b4" stroke-width="1.2"/>
<text x="1771" y="930" font-family="Microsoft YaHei,PingFang SC,sans-serif" font-size="10" fill="#5a4a33" text-anchor="middle" dominant-baseline="middle">浴缸</text>
<rect x="1575" y="1100" width="245" height="225" fill="none" stroke="#c9bb96" stroke-width="1" stroke-dasharray="6,4"/>
<rect x="1608" y="1120" width="202" height="182" rx="2" fill="#e3c9a6" stroke="#b78f5e" stroke-width="1.2"/>
<text x="1709" y="1211" font-family="Microsoft YaHei,PingFang SC,sans-serif" font-size="10" fill="#5a4a33" text-anchor="middle" dominant-baseline="middle">双人床</text>
<rect x="1766" y="1078" width="42" height="40" rx="2" fill="#ece0c8" stroke="#b9a274" stroke-width="1.2"/>
<rect x="1766" y="1302" width="42" height="40" rx="2" fill="#ece0c8" stroke="#b9a274" stroke-width="1.2"/>
<rect x="1285" y="1140" width="105" height="170" rx="2" fill="#cdd9e0" stroke="#7a93a0" stroke-width="1.2"/>
<text x="1338" y="1225" font-family="Microsoft YaHei,PingFang SC,sans-serif" font-size="10" fill="#5a4a33" text-anchor="middle" dominant-baseline="middle">贵妃榻</text>
<rect x="255" y="1095" width="180" height="200" rx="2" fill="#e3c9a6" stroke="#b78f5e" stroke-width="1.2"/>
<text x="345" y="1195" font-family="Microsoft YaHei,PingFang SC,sans-serif" font-size="10" fill="#5a4a33" text-anchor="middle" dominant-baseline="middle">双人床</text>
<rect x="190" y="1030" width="42" height="250" rx="2" fill="#cdb18f" stroke="#a9895c" stroke-width="1.2"/>
<text x="211" y="1155" font-family="Microsoft YaHei,PingFang SC,sans-serif" font-size="10" fill="#5a4a33" text-anchor="middle" dominant-baseline="middle">衣柜</text>
<rect x="300" y="1320" width="60" height="60" rx="2" fill="#cfe0d4" stroke="#7fa088" stroke-width="1.2"/>
<circle cx="400" cy="1350" r="22" fill="#e7d9bb" stroke="#b9ad8a" stroke-width="1.2"/>
<rect x="20" y="1100" width="60" height="40" rx="2" fill="#dde7ec" stroke="#8aa6b4" stroke-width="1.2"/>
<text x="50" y="1120" font-family="Microsoft YaHei,PingFang SC,sans-serif" font-size="10" fill="#5a4a33" text-anchor="middle" dominant-baseline="middle">台盆</text>
<rect x="20" y="1200" width="55" height="80" rx="2" fill="#dde7ec" stroke="#8aa6b4" stroke-width="1.2"/>
<text x="48" y="1240" font-family="Microsoft YaHei,PingFang SC,sans-serif" font-size="10" fill="#5a4a33" text-anchor="middle" dominant-baseline="middle">马桶</text>
</g>
<g id="room_labels">
<text class="zh-label-public" x="90" y="350">公共电梯厅</text>
<text class="zh-label-public" x="250" y="780">公共楼梯间</text>
<text class="zh-label" x="542" y="110">入户花园</text>
<text class="en-label" x="542" y="138">COURTYARD</text>
<text class="zh-label" x="337" y="420">玄关</text>
<text class="en-label" x="337" y="448">VESTIBULE</text>
<text class="zh-label" x="855" y="750">餐厅区</text>
<text class="en-label" x="855" y="778">DINING AREA</text>
<text class="zh-label" x="860" y="435">厨房</text>
<text class="en-label" x="860" y="463">KITCHEN</text>
<text class="zh-label" x="1110" y="435">生活阳台</text>
<text class="en-label" x="1110" y="463">UTILITY BALCONY</text>
<text class="zh-label" x="855" y="1372">客厅·景观区</text>
<text class="en-label" x="855" y="1400">LIVING (EXT)</text>
<text class="zh-label" x="337" y="965">套内过道</text>
<text class="en-label" x="337" y="993">CORRIDOR</text>
<text class="zh-label" x="337" y="1210">次卧套房</text>
<text class="en-label" x="337" y="1238">GUEST SUITE</text>
<text class="zh-label" x="90" y="1210">次卫</text>
<text class="en-label" x="90" y="1238">BATH</text>
<text class="zh-label" x="1365" y="330">书房</text>
<text class="en-label" x="1365" y="358">STUDY</text>
<text class="zh-label" x="1665" y="390">次卧(二)</text>
<text class="en-label" x="1665" y="418">GUESTROOM 2</text>
<text class="zh-label" x="1340" y="625">内部过渡</text>
<text class="en-label" x="1340" y="653">PRIVATE LOBBY</text>
<text class="zh-label" x="1665" y="665">公卫</text>
<text class="en-label" x="1665" y="693">PUBLIC RESTROOM</text>
<text class="zh-label" x="1365" y="880">主卧衣帽间</text>
<text class="en-label" x="1365" y="908">CLOAKROOM</text>
<text class="zh-label" x="1665" y="880">主卫</text>
<text class="en-label" x="1665" y="908">MASTER BATH</text>
<text class="zh-label" x="1515" y="1200">主卧睡眠区</text>
<text class="en-label" x="1515" y="1228">MASTER BEDROOM</text>
<text class="zh-label" x="255" y="335">入户门</text>
<text class="en-label" x="255" y="363">ENTRANCE</text>
<text class="zh-label" x="855" y="950">客厅区</text>
<text class="en-label" x="855" y="978">LIVING ROOM</text>
</g>
</g>
</svg>