<?xml version="1.0" encoding="utf-8"?>
<svg xmlns="http://www.w3.org/2000/svg" viewBox="0 0 2200 1800" width="100%" height="100%">
  <defs>
    <style>
      .bg { fill: #ffffff; }
      .wall-thick { stroke: #1a1a1a; stroke-width: 7; stroke-linecap: round; stroke-linejoin: round; fill: none; }
      .wall-thin { stroke: #555555; stroke-width: 3; fill: none; }
      .wall-public { stroke: #b0b0b0; stroke-width: 3; stroke-dasharray: 4,4; fill: none; }
      .room-bedroom { fill: #fbfbfb; stroke: #d0d0d0; stroke-width: 1; }
      .room-living { fill: #fcfdfd; stroke: #d0d0d0; stroke-width: 1; }
      .room-wet { fill: #f5f6f7; stroke: #d0d0d0; stroke-width: 1; }
      .room-outdoor { fill: #f7f5f2; stroke: #d0d0d0; stroke-width: 1; }
      .room-corridor { fill: #fafafa; stroke: #d0d0d0; stroke-width: 1; }
      .room-public { fill: #f0f0f0; stroke: #e0e0e0; stroke-width: 1; }
      .window { stroke: #6ba4c7; stroke-width: 5; fill: #eef7fc; }
      .door-leaf { stroke: #b5845c; stroke-width: 4; stroke-linecap: round; fill: none; } 
      .door-arc { stroke: #b5845c; stroke-width: 2; stroke-dasharray: 4,4; fill: none; } 
      .door-sliding { fill: #6ba4c7; stroke: #4a7b9d; stroke-width: 1; } 
      .zh-label { font-family: "Microsoft YaHei", "SimHei", "PingFang SC", sans-serif; font-size: 24px; font-weight: bold; fill: #000000; text-anchor: middle; dominant-baseline: middle; }
      .zh-label-public { font-family: "Microsoft YaHei", "SimHei", "PingFang SC", sans-serif; font-size: 20px; font-weight: normal; fill: #888888; text-anchor: middle; dominant-baseline: middle; }
      .en-label { font-family: Arial, sans-serif; font-size: 14px; font-weight: normal; fill: #444444; text-anchor: middle; dominant-baseline: middle; }
      .dim-line { stroke: #776e65; stroke-width: 1.5; }
      .dim-tick { stroke: #443f3a; stroke-width: 2.5; }
      .dim-text { font-family: Arial, sans-serif; font-size: 16px; font-weight: bold; fill: #222222; text-anchor: middle; dominant-baseline: middle; }
      .title { font-family: "Microsoft YaHei", sans-serif; font-size: 42px; fill: #111111; font-weight: bold; letter-spacing: 2px; }
      .subtitle { font-family: "Microsoft YaHei", sans-serif; font-size: 20px; fill: #555555; }
    </style>
  </defs>
  <rect class="bg" width="2200" height="1800" />
  
  <g transform="translate(150, 250)">
    <rect class="room-public" x="0" y="250" width="180" height="390" /> 
    <rect class="room-public" x="0" y="640" width="495" height="280" /> 
    <rect class="room-outdoor" x="365" y="0" width="310" height="250" /> 
    <rect class="room-living" x="180" y="250" width="315" height="390" /> 
    <rect class="room-living" x="495" y="250" width="180" height="390" /> 
    <rect class="room-living" x="495" y="490" width="720" height="765" /> 
    <rect class="room-wet" x="675" y="265" width="330" height="225" /> 
    <rect class="room-outdoor" x="1005" y="265" width="210" height="225" /> 
    <rect class="room-living" x="495" y="1255" width="720" height="155" /> 
    <rect class="room-corridor" x="180" y="920" width="315" height="100" /> 
    <rect class="room-bedroom" x="180" y="1020" width="315" height="390" /> 
    <rect class="room-wet" x="0" y="1020" width="180" height="390" /> 
    <rect class="room-corridor" x="0" y="920" width="180" height="100" /> 
    <rect class="room-bedroom" x="1215" y="170" width="300" height="320" /> <rect class="room-bedroom" x="1515" y="170" width="300" height="400" /> <rect class="room-corridor" x="1215" y="490" width="300" height="270" /> 
    <rect class="room-wet" x="1515" y="570" width="300" height="190" /> 
    <rect class="room-bedroom" x="1215" y="680" width="300" height="340" /> 
    <rect class="room-wet" x="1515" y="760" width="300" height="260" /> 
    <rect class="room-bedroom" x="1215" y="1020" width="600" height="390" /> 
    <path class="wall-thick" d="
      M 180,250 L 365,250 L 365,0 L 675,0 L 675,265 L 1215,265 L 1215,170 L 1815,170 L 1815,1410 L 0,1410 L 0,920 L 495,920 V 640 L 180,640 Z" />
    <path class="wall-public" d="M 0,250 L 180,250 M 0,250 V 920 M 0,640 H 180 V 920" />
    <line class="wall-thin" x1="0" y1="480" x2="180" y2="480" />
    <line class="wall-thin" x1="0" y1="520" x2="180" y2="520" />
    <line class="wall-thin" x1="0" y1="560" x2="180" y2="560" />
    <line class="wall-thin" x1="0" y1="600" x2="180" y2="600" />
    <line class="wall-thick" x1="495" y1="250" x2="495" y2="340" />
    <line class="wall-thick" x1="495" y1="430" x2="495" y2="640" />
    <line class="wall-thick" x1="675" y1="265" x2="675" y2="490" />
    <line class="wall-thick" x1="1005" y1="265" x2="1005" y2="490" />
    <line class="wall-thick" x1="1515" y1="170" x2="1515" y2="490" /><line class="wall-thick" x1="1515" y1="570" x2="1515" y2="660" />
    <line class="wall-thick" x1="1215" y1="265" x2="1215" y2="490" />
    <line class="wall-thick" x1="1215" y1="490" x2="1430" y2="490" /> 
    <line class="wall-thick" x1="1515" y1="570" x2="1815" y2="570" /> 
    <line class="wall-thick" x1="1215" y1="680" x2="1435" y2="680" /> 
    <line class="wall-thick" x1="1515" y1="760" x2="1815" y2="760" /> 
    <line class="wall-thick" x1="1515" y1="740" x2="1515" y2="800" /><line class="wall-thick" x1="1515" y1="870" x2="1515" y2="1020" /> 
    <line class="wall-thick" x1="1215" y1="1020" x2="1430" y2="1020" />
    <line class="wall-thick" x1="1515" y1="1020" x2="1815" y2="1020" /> 
    <line class="wall-thick" x1="495" y1="1025" x2="495" y2="1255" /> 
    <line class="wall-thick" x1="495" y1="1255" x2="495" y2="1410" /> 
    <line class="wall-thick" x1="1215" y1="1255" x2="1215" y2="1410" /> 
    <line class="wall-thick" x1="180" y1="1020" x2="180" y2="1410" />
    <line class="wall-thick" x1="0" y1="1020" x2="50" y2="1020" />
    <line class="wall-thick" x1="130" y1="1020" x2="180" y2="1020" />
    <rect class="window" data-wtype="full" x="495" y="1405" width="720" height="10" /> 
    
    <rect class="window" data-wtype="full" x="1215" y="1405" width="600" height="10" /> 
    <rect class="window" data-wtype="full" x="180" y="1405" width="315" height="10" /> 
    <rect class="window" x="1235" y="165" width="260" height="10" /> 
    <rect class="window" x="1535" y="165" width="260" height="10" /> 
    <path class="door-arc" d="M 690 265 A 80 80 0 0 1 610 345" /> <line class="door-leaf" x1="610" y1="265" x2="610" y2="345" /> 
    <path class="door-arc" d="M 495 430 A 90 90 0 0 1 405 340" /> <line class="door-leaf" x1="495" y1="340" x2="405" y2="340" /> 
    <path class="door-arc" d="M 180 300 A 90 90 0 0 1 270 390" /> <line class="door-leaf" x1="180" y1="390" x2="270" y2="390" />
    <path class="door-arc" d="M 1510 490 A 80 80 0 0 1 1430 570" /> <line class="door-leaf" x1="1430" y1="490" x2="1430" y2="570" /> 
    <path class="door-arc" d="M 1515 500 A 75 75 0 0 0 1440 575" /> <line class="door-leaf" x1="1515" y1="500" x2="1440" y2="500" /> 
    <path class="door-arc" d="M 1515 660 A 80 80 0 0 1 1595 740" /> <line class="door-leaf" x1="1515" y1="740" x2="1595" y2="740" /> 
    <path class="door-arc" d="M 1430 760 A 85 85 0 0 0 1515 845" /> <line class="door-leaf" x1="1515" y1="760" x2="1515" y2="845" />
    <path class="door-arc" d="M 1515 800 A 70 70 0 0 1 1585 870" /> <line class="door-leaf" x1="1515" y1="870" x2="1585" y2="870" />
    <path class="door-arc" d="M 1430 1020 A 85 85 0 0 0 1515 1105" /> <line class="door-leaf" x1="1515" y1="1020" x2="1515" y2="1105" />
    <path class="door-arc" d="M 495 1025 A 85 85 0 0 1 410 940" /> <line class="door-leaf" x1="495" y1="940" x2="410" y2="940" />
    <path class="door-arc" d="M 130 1020 A 80 80 0 0 0 50 940" /> <line class="door-leaf" x1="130" y1="1020" x2="130" y2="940" />
    <rect class="door-sliding" x="745" y="487" width="85" height="5" /> <rect class="door-sliding" x="820" y="493" width="85" height="5" />
    <g id="struct-layer">
<rect x="500" y="1250" width="710" height="10" fill="#fcfdfd" stroke="none"/>
<line x1="675" y1="490" x2="745" y2="490" stroke="#1a1a1a" stroke-width="7" stroke-linecap="round"/>
<line x1="905" y1="490" x2="1120" y2="490" stroke="#1a1a1a" stroke-width="7" stroke-linecap="round"/>
<line x1="1435" y1="680" x2="1435" y2="760" stroke="#1a1a1a" stroke-width="7" stroke-linecap="round"/>
<line x1="1215" y1="680" x2="1215" y2="1255" stroke="#1a1a1a" stroke-width="7" stroke-linecap="round"/>
</g>
<g id="window-layer">
<rect class="window" data-wtype="normal" x="705" y="260" width="260" height="10"/>
<rect class="window" data-wtype="full" x="1035" y="260" width="150" height="10"/>
<rect class="window" data-wtype="high" x="1805" y="820" width="10" height="190"/>
<rect class="window" data-wtype="high" x="1805" y="600" width="10" height="130"/>
<rect class="window" data-wtype="full" x="20" y="1405" width="140" height="10"/>
<rect class="window" data-wtype="full" x="395" y="-5" width="250" height="10"/>
<rect class="window" data-wtype="full" x="360" y="30" width="10" height="190"/>
<rect class="window" data-wtype="full" x="195" y="245" width="160" height="10"/>
</g>
    <g id="room_labels">
      <text class="zh-label" x="255" y="335">入户门</text><text class="en-label" x="255" y="358">ENTRANCE</text>
      <text class="zh-label" x="542" y="110">入户花园</text><text class="en-label" x="542" y="140">COURTYARD</text>
      <text class="zh-label" x="337" y="420">玄关</text><text class="en-label" x="337" y="445">VESTIBULE</text>
      <text class="zh-label" x="860" y="435">厨房</text><text class="en-label" x="860" y="460">KITCHEN</text>
      <text class="zh-label" x="1110" y="435">生活阳台</text><text class="en-label" x="1110" y="460">UTILITY BALCONY</text>
      <text class="zh-label" x="1365" y="330">书房</text><text class="en-label" x="1365" y="355">STUDY</text>
      <text class="zh-label" x="1665" y="390">次卧 (二)</text><text class="en-label" x="1665" y="415">GUESTROOM 2</text>
      <text class="zh-label" x="1340" y="625">内部过渡</text><text class="en-label" x="1340" y="650">PRIVATE LOBBY</text>
      <text class="zh-label" x="1665" y="665">公卫</text><text class="en-label" x="1665" y="690">PUBLIC RESTROOM</text>
      <text class="zh-label" x="1365" y="880">主卧衣帽间</text><text class="en-label" x="1365" y="905">CLOAKROOM</text>
      <text class="zh-label" x="1665" y="880">主卫</text><text class="en-label" x="1665" y="905">MASTER BATH</text>
      <text class="zh-label" x="1515" y="1200">主卧睡眠区</text><text class="en-label" x="1515" y="1225">MASTER BEDROOM</text>
      <text class="zh-label" x="855" y="750">餐厅区</text><text class="en-label" x="855" y="775">DINING AREA</text>
      <text class="zh-label" x="855" y="950">客厅区</text><text class="en-label" x="855" y="975">LIVING ROOM</text>
      <text class="zh-label" x="855" y="1372">客厅·景观区</text><text class="en-label" x="855" y="1397">LIVING (EXTENDED)</text>
      <text class="zh-label" x="337" y="965">套内过道</text><text class="en-label" x="337" y="985">CORRIDOR</text>
      <text class="zh-label" x="337" y="1210">次卧套房</text><text class="en-label" x="337" y="1235">GUEST SUITE</text>
      <text class="zh-label" x="90" y="1210">次卫</text><text class="en-label" x="90" y="1235">BATH</text>
      <text class="zh-label-public" x="90" y="350">公共电梯厅</text>
      <text class="zh-label-public" x="250" y="780">公共楼梯间</text>
    </g>
    
    
    
    
  </g>
</svg>
